if (_typeface_js && _typeface_js.loadFace) _typeface_js.loadFace({"glyphs":{"¦":{"x_min":297,"x_max":399,"ha":694,"o":"m 399 277 l 399 -237 l 297 -237 l 297 277 l 399 277 m 399 971 l 399 457 l 297 457 l 297 971 l 399 971 "},"Ž":{"x_min":32,"x_max":582,"ha":614,"o":"m 32 0 l 32 108 l 453 935 l 56 935 l 56 1044 l 577 1044 l 577 936 l 158 113 l 582 113 l 582 0 l 32 0 m 134 1327 l 200 1327 l 307 1214 l 414 1327 l 481 1327 l 364 1144 l 250 1144 l 134 1327 "},"Á":{"x_min":21,"x_max":743,"ha":764,"o":"m 241 407 l 519 407 l 380 953 l 241 407 m 21 0 l 305 1044 l 454 1044 l 743 0 l 625 0 l 545 301 l 214 301 l 138 0 l 21 0 m 300 1143 l 415 1327 l 536 1327 l 368 1143 l 300 1143 "},"Î":{"x_min":-21,"x_max":326,"ha":306,"o":"m 93 0 l 93 1044 l 212 1044 l 212 0 l 93 0 m -21 1144 l 95 1327 l 209 1327 l 326 1144 l 259 1144 l 152 1256 l 45 1144 l -21 1144 "},"e":{"x_min":61,"x_max":550,"ha":611,"o":"m 174 475 l 439 475 l 439 496 q 407 658 439 603 q 312 713 375 713 q 208 654 242 713 q 174 475 174 595 m 440 264 l 547 264 q 483 52 545 125 q 307 -21 421 -21 q 121 77 181 -21 q 61 381 61 175 q 121 701 61 600 q 309 803 181 803 q 490 716 431 803 q 550 454 550 630 q 549 412 550 426 q 548 387 549 398 l 174 386 l 174 351 q 207 138 174 205 q 315 71 241 71 q 406 121 373 71 q 440 258 440 171 l 440 264 "},"»":{"x_min":87,"x_max":580,"ha":669,"o":"m 87 126 l 87 252 l 220 391 l 87 527 l 87 654 l 292 441 l 292 342 l 87 126 m 375 126 l 375 252 l 508 391 l 375 527 l 375 654 l 580 441 l 580 342 l 375 126 "},"∆":{"x_min":-4,"x_max":933,"ha":929,"o":"m 463 855 l 180 121 l 747 121 l 463 855 m 388 999 l 540 999 l 933 0 l -4 0 l 388 999 "},"ò":{"x_min":61,"x_max":610,"ha":671,"o":"m 61 389 q 128 701 61 600 q 335 803 196 803 q 543 702 476 803 q 610 389 610 602 q 543 78 610 177 q 335 -21 476 -21 q 126 77 192 -21 q 61 389 61 176 m 178 390 q 213 143 178 215 q 335 72 249 72 q 455 144 419 72 q 492 390 492 217 q 455 635 492 563 q 335 707 419 707 q 214 636 250 707 q 178 390 178 565 m 422 865 l 353 865 l 186 1048 l 306 1048 l 422 865 "},"^":{"x_min":285,"x_max":1103,"ha":1389,"o":"m 757 989 l 1103 611 l 980 611 l 694 896 l 407 611 l 285 611 l 630 989 l 757 989 "},"«":{"x_min":87,"x_max":580,"ha":669,"o":"m 580 126 l 375 342 l 375 441 l 580 654 l 580 527 l 447 391 l 580 252 l 580 126 m 292 126 l 87 342 l 87 441 l 292 654 l 292 527 l 160 391 l 292 252 l 292 126 "},"∙":{"x_min":85,"x_max":261,"ha":347,"o":"m 85 516 q 110 578 85 553 q 172 604 135 604 q 235 578 210 604 q 261 516 261 553 q 234 453 261 479 q 172 428 208 428 q 110 453 135 428 q 85 516 85 479 "},"í":{"x_min":57,"x_max":293,"ha":277,"o":"m 82 0 l 82 781 l 195 781 l 195 0 l 82 0 m 57 864 l 172 1048 l 293 1048 l 125 864 l 57 864 "},"ˆ":{"x_min":174,"x_max":521,"ha":694,"o":"m 174 865 l 290 1048 l 404 1048 l 521 865 l 454 865 l 347 977 l 240 865 l 174 865 "},"µ":{"x_min":-77,"x_max":723,"ha":781,"o":"m 260 726 l 173 318 q 166 274 168 297 q 163 228 163 252 q 199 124 163 161 q 299 88 234 88 q 440 150 388 88 q 524 362 492 213 l 602 726 l 723 726 l 617 229 q 614 215 616 225 q 602 139 602 156 q 613 103 602 114 q 651 93 624 93 q 663 93 659 93 q 672 94 668 94 l 651 -1 q 617 -6 635 -5 q 578 -8 600 -8 q 512 10 535 -8 q 477 78 489 30 q 401 11 447 33 q 294 -10 355 -10 q 197 8 238 -10 q 120 68 155 27 l 46 -290 l -77 -290 l 138 726 l 260 726 "},"č":{"x_min":64,"x_max":569,"ha":639,"o":"m 462 275 l 569 275 q 503 56 569 133 q 319 -21 438 -21 q 126 81 189 -21 q 64 396 64 183 q 129 701 64 600 q 326 802 194 802 q 499 735 436 802 q 563 553 563 668 l 563 537 l 457 537 q 421 661 453 618 q 331 704 389 704 q 216 633 250 704 q 182 392 182 562 q 216 148 182 220 q 332 77 251 77 q 426 127 393 77 q 462 275 459 178 m 156 1048 l 222 1048 l 329 935 l 436 1048 l 503 1048 l 386 865 l 272 865 l 156 1048 "},"’":{"x_min":109,"x_max":232,"ha":340,"o":"m 109 702 l 109 767 q 152 806 136 773 q 168 895 168 840 l 168 902 l 109 902 l 109 1044 l 232 1044 l 232 900 q 198 769 232 822 q 109 702 165 716 "},"-":{"x_min":61,"x_max":396,"ha":458,"o":"m 61 329 l 61 452 l 396 452 l 396 329 l 61 329 "},"Q":{"x_min":72,"x_max":791,"ha":814,"o":"m 528 115 l 419 208 l 486 286 l 584 202 q 611 342 602 267 q 620 508 620 417 q 573 870 620 776 q 406 965 526 965 q 242 869 289 965 q 195 522 195 774 q 242 173 195 269 q 406 78 289 78 q 477 86 449 78 q 528 115 506 95 m 614 41 q 532 -8 584 8 q 406 -25 479 -25 q 151 103 230 -25 q 72 522 72 232 q 150 941 72 813 q 406 1069 229 1069 q 662 942 584 1069 q 741 521 741 816 q 723 279 741 380 q 672 124 705 178 l 791 29 l 728 -50 l 614 41 "},"M":{"x_min":92,"x_max":932,"ha":1025,"o":"m 818 0 l 818 984 l 563 0 l 450 0 l 206 984 l 206 0 l 92 0 l 92 1044 l 288 1044 l 508 153 l 738 1044 l 932 1044 l 932 0 l 818 0 "},"œ":{"x_min":61,"x_max":941,"ha":1007,"o":"m 578 474 l 831 474 q 831 491 831 479 q 832 511 832 504 q 799 659 832 607 q 707 712 767 712 q 609 654 640 712 q 578 474 578 597 m 176 383 q 211 141 176 213 q 326 70 246 70 q 438 138 406 70 q 471 385 471 207 q 438 644 471 576 q 325 712 406 712 q 209 641 242 712 q 176 383 176 570 m 521 92 q 446 7 494 35 q 325 -20 398 -20 q 124 77 188 -20 q 61 381 61 174 q 123 702 61 602 q 324 802 186 802 q 442 775 394 802 q 524 693 491 749 q 600 774 554 747 q 707 802 645 802 q 883 716 826 802 q 941 450 941 630 q 940 410 941 424 q 938 385 940 397 l 580 385 l 580 336 q 609 130 580 190 q 709 70 639 70 q 801 119 768 70 q 835 260 833 168 l 936 260 q 874 52 932 125 q 714 -20 816 -20 q 594 7 642 -20 q 521 92 547 35 "},"{":{"x_min":114,"x_max":588,"ha":694,"o":"m 588 900 l 560 900 q 450 869 478 900 q 423 745 423 839 l 423 581 q 392 426 423 472 q 286 359 362 380 q 393 294 363 341 q 423 139 423 248 l 423 -24 q 451 -148 423 -119 q 561 -178 479 -178 l 588 -178 l 588 -280 l 558 -280 q 443 -272 485 -280 q 373 -246 402 -264 q 321 -180 336 -223 q 306 -36 306 -137 l 306 128 q 269 270 306 229 q 143 311 232 311 q 128 310 138 311 q 114 310 118 310 l 114 412 q 129 411 119 412 q 144 410 139 410 q 269 451 232 410 q 306 592 306 492 l 306 758 q 321 901 306 858 q 373 966 336 943 q 447 993 404 985 q 562 1002 490 1002 l 588 1002 l 588 900 "},"¼":{"x_min":65,"x_max":1064,"ha":1104,"o":"m 755 206 l 933 206 l 941 503 l 755 206 m 933 0 l 933 150 l 696 150 l 696 206 l 938 587 l 1003 587 l 1003 206 l 1064 206 l 1064 150 l 1003 150 l 1003 0 l 933 0 m 288 -21 l 204 -21 l 813 1051 l 898 1051 l 288 -21 m 205 453 l 205 884 l 65 884 l 65 934 l 73 934 q 179 960 144 934 q 217 1042 214 987 l 276 1042 l 276 453 l 205 453 "},"#":{"x_min":60,"x_max":1009,"ha":1068,"o":"m 657 582 l 481 582 l 418 402 l 595 402 l 657 582 m 627 989 l 517 682 l 690 682 l 802 989 l 913 989 l 804 682 l 1009 682 l 974 582 l 768 582 l 705 404 l 924 404 l 889 304 l 671 304 l 561 -3 l 449 -3 l 558 304 l 383 304 l 273 -3 l 161 -3 l 269 304 l 60 304 l 95 404 l 306 404 l 368 582 l 144 582 l 179 682 l 404 682 l 514 989 l 627 989 "},"Ê":{"x_min":93,"x_max":615,"ha":681,"o":"m 93 0 l 93 1044 l 610 1044 l 610 935 l 208 935 l 208 600 l 584 600 l 584 494 l 208 494 l 208 110 l 615 110 l 615 0 l 93 0 m 190 1144 l 306 1327 l 420 1327 l 537 1144 l 470 1144 l 363 1256 l 256 1144 l 190 1144 "},")":{"x_min":37,"x_max":331,"ha":443,"o":"m 116 -305 l 37 -305 q 95 -183 68 -243 q 146 -60 122 -123 q 194 134 179 29 q 210 378 210 240 q 168 746 210 588 q 37 1044 127 903 l 116 1044 q 277 721 224 887 q 331 374 331 555 q 280 41 331 203 q 116 -305 229 -119 "},"Å":{"x_min":21,"x_max":743,"ha":764,"o":"m 314 1207 q 334 1161 314 1181 q 380 1141 354 1141 q 427 1160 407 1141 q 447 1207 447 1180 q 427 1254 447 1234 q 380 1274 407 1274 q 334 1254 354 1274 q 314 1207 314 1234 m 250 1207 q 287 1300 250 1262 q 380 1338 325 1338 q 473 1300 435 1338 q 511 1207 511 1262 q 472 1115 511 1153 q 380 1077 434 1077 q 287 1115 325 1077 q 250 1207 250 1153 m 241 407 l 519 407 l 380 954 l 241 407 m 21 0 l 304 1038 l 455 1038 l 743 0 l 624 0 l 545 301 l 214 301 l 138 0 l 21 0 "},"¸":{"x_min":224,"x_max":514,"ha":694,"o":"m 224 -231 l 234 -233 q 344 -248 320 -248 q 400 -233 381 -248 q 419 -190 419 -218 q 399 -146 419 -162 q 343 -131 379 -131 q 333 -131 338 -131 q 318 -133 328 -131 l 318 0 l 370 0 l 370 -68 l 374 -68 q 476 -99 439 -68 q 514 -186 514 -131 q 471 -285 514 -252 q 347 -319 429 -319 q 290 -314 321 -319 q 224 -300 259 -310 l 224 -231 "},"a":{"x_min":61,"x_max":590,"ha":619,"o":"m 417 421 q 303 361 391 392 q 292 357 296 358 q 193 297 216 330 q 171 198 171 263 q 196 107 171 139 q 269 76 222 76 q 376 127 336 76 q 417 266 417 179 l 417 421 m 590 -1 q 554 -6 569 -4 q 525 -8 538 -8 q 453 21 479 -8 q 424 103 426 50 q 352 11 399 43 q 239 -20 304 -20 q 108 37 155 -20 q 61 197 61 94 q 104 351 61 298 q 293 453 148 404 l 295 453 q 414 547 414 493 l 414 619 q 386 689 414 667 q 299 711 359 711 q 212 680 240 711 q 184 587 184 650 l 184 574 l 82 574 q 138 748 84 693 q 312 803 193 803 q 474 752 423 803 q 526 592 526 702 l 526 136 q 536 92 526 105 q 572 79 547 79 q 587 81 577 79 q 590 81 588 81 l 590 -1 "},"=":{"x_min":172,"x_max":984,"ha":1157,"o":"m 984 326 l 984 232 l 172 232 l 172 326 l 984 326 m 984 596 l 984 501 l 172 501 l 172 596 l 984 596 "},"˚":{"x_min":176,"x_max":519,"ha":694,"o":"m 255 1022 q 281 956 255 983 q 347 930 308 930 q 412 956 385 930 q 440 1022 440 983 q 412 1087 440 1060 q 347 1115 385 1115 q 281 1088 308 1115 q 255 1022 255 1061 m 176 1023 q 225 1144 176 1095 q 346 1194 274 1194 q 468 1144 418 1194 q 519 1023 519 1095 q 468 901 519 951 q 346 851 418 851 q 225 901 274 851 q 176 1023 176 951 "},"ú":{"x_min":81,"x_max":564,"ha":653,"o":"m 462 0 l 462 102 q 389 10 439 42 q 268 -21 338 -21 q 125 27 170 -21 q 81 180 81 75 l 81 781 l 195 781 l 195 178 q 219 103 195 129 q 286 77 243 77 q 408 125 364 77 q 453 262 453 174 l 453 781 l 564 781 l 564 0 l 462 0 m 240 864 l 355 1048 l 476 1048 l 308 864 l 240 864 "},"¯":{"x_min":195,"x_max":500,"ha":694,"o":"m 195 903 l 195 993 l 500 993 l 500 903 l 195 903 "},"Z":{"x_min":32,"x_max":582,"ha":614,"o":"m 32 0 l 32 108 l 453 935 l 56 935 l 56 1044 l 577 1044 l 577 936 l 158 113 l 582 113 l 582 0 l 32 0 "},"u":{"x_min":81,"x_max":564,"ha":653,"o":"m 462 0 l 462 102 q 389 10 439 42 q 268 -21 338 -21 q 125 27 170 -21 q 81 180 81 75 l 81 781 l 195 781 l 195 178 q 219 103 195 129 q 286 77 243 77 q 408 125 364 77 q 453 262 453 174 l 453 781 l 564 781 l 564 0 l 462 0 "},"k":{"x_min":83,"x_max":601,"ha":589,"o":"m 83 0 l 83 1044 l 189 1044 l 189 426 l 455 781 l 583 781 l 349 485 l 601 0 l 467 0 l 275 384 l 189 278 l 189 0 l 83 0 "},"Ù":{"x_min":94,"x_max":706,"ha":800,"o":"m 94 1044 l 211 1044 l 211 341 q 252 137 211 194 q 394 80 294 80 q 543 143 495 80 q 592 341 592 206 l 592 1044 l 706 1044 l 706 362 q 691 175 706 230 q 640 78 676 121 q 535 2 598 28 q 392 -24 472 -24 q 245 4 310 -24 q 142 84 180 32 q 105 174 116 119 q 94 362 94 230 l 94 1044 m 482 1144 l 413 1144 l 246 1327 l 366 1327 l 482 1144 "},"¢":{"x_min":102,"x_max":601,"ha":692,"o":"m 314 -220 l 314 0 q 155 107 209 8 q 102 396 102 207 q 153 693 102 594 q 314 807 204 793 l 314 1002 l 403 1002 l 403 810 q 547 732 498 795 q 596 562 596 670 l 596 554 l 487 554 q 450 677 481 636 q 362 718 420 718 q 251 645 283 718 q 219 381 219 573 q 253 161 219 231 q 364 92 288 92 q 457 140 421 92 q 493 270 493 189 l 493 290 l 601 290 q 548 85 599 160 q 403 1 496 10 l 403 -220 l 314 -220 "},"Ş":{"x_min":69,"x_max":675,"ha":745,"o":"m 70 331 l 182 331 l 182 293 q 231 133 182 187 q 376 79 280 79 q 512 131 463 79 q 562 274 562 183 q 531 387 562 348 q 395 467 501 427 q 325 493 370 476 q 172 563 198 540 q 107 654 128 601 q 86 778 86 708 q 161 992 86 915 q 370 1069 236 1069 q 570 997 498 1069 q 643 801 643 926 q 642 788 643 797 q 641 775 641 779 l 534 775 l 534 785 q 491 921 534 873 q 369 969 448 969 q 241 923 288 969 q 195 799 195 877 q 226 685 195 725 q 365 605 258 644 q 403 591 378 600 q 598 500 567 530 q 656 413 637 464 q 675 289 675 361 q 592 58 675 141 q 364 -24 510 -24 q 143 57 218 -24 q 69 296 69 138 q 69 313 69 301 q 70 331 70 325 m 249 -231 l 259 -233 q 369 -248 345 -248 q 425 -233 406 -248 q 444 -190 444 -218 q 424 -146 444 -162 q 368 -131 404 -131 q 358 -131 363 -131 q 343 -133 353 -131 l 343 0 l 395 0 l 395 -68 l 399 -68 q 501 -99 464 -68 q 539 -186 539 -131 q 496 -285 539 -252 q 372 -319 454 -319 q 315 -314 346 -319 q 249 -300 284 -310 l 249 -231 "},"é":{"x_min":61,"x_max":550,"ha":611,"o":"m 174 475 l 439 475 l 439 496 q 407 658 439 603 q 312 713 375 713 q 208 654 242 713 q 174 475 174 595 m 440 264 l 547 264 q 483 52 545 125 q 307 -21 421 -21 q 121 77 181 -21 q 61 381 61 175 q 121 701 61 600 q 309 803 181 803 q 490 716 431 803 q 550 454 550 630 q 549 412 550 426 q 548 387 549 398 l 174 386 l 174 351 q 207 138 174 205 q 315 71 241 71 q 406 121 373 71 q 440 258 440 171 l 440 264 m 241 864 l 356 1048 l 477 1048 l 309 864 l 241 864 "},"B":{"x_min":93,"x_max":678,"ha":751,"o":"m 206 599 l 328 599 q 482 639 438 599 q 527 779 527 680 q 481 912 527 874 q 321 951 436 951 l 206 951 l 206 599 m 206 103 l 354 103 q 508 147 461 103 q 555 293 555 192 q 505 455 555 408 q 334 503 455 503 l 206 503 l 206 103 m 93 0 l 93 1044 l 366 1044 q 578 981 512 1044 q 645 782 645 919 q 609 632 645 688 q 500 554 573 575 q 634 473 591 536 q 678 299 678 410 q 599 78 678 156 q 377 0 520 0 l 93 0 "},"…":{"x_min":169,"x_max":1219,"ha":1389,"o":"m 169 0 l 169 143 l 292 143 l 292 0 l 169 0 m 632 0 l 632 143 l 755 143 l 755 0 l 632 0 m 1096 0 l 1096 143 l 1219 143 l 1219 0 l 1096 0 "},"H":{"x_min":93,"x_max":721,"ha":814,"o":"m 93 0 l 93 1044 l 212 1044 l 212 613 l 602 613 l 602 1044 l 721 1044 l 721 0 l 602 0 l 602 508 l 212 508 l 212 0 l 93 0 "},"î":{"x_min":-34,"x_max":313,"ha":277,"o":"m 82 0 l 82 781 l 195 781 l 195 0 l 82 0 m -34 865 l 82 1048 l 196 1048 l 313 865 l 246 865 l 139 977 l 32 865 l -34 865 "},"−":{"x_min":172,"x_max":984,"ha":1157,"o":"m 984 463 l 984 367 l 172 367 l 172 463 l 984 463 "},"≠":{"x_min":172,"x_max":984,"ha":1157,"o":"m 889 754 l 763 595 l 984 595 l 984 503 l 702 503 l 563 325 l 984 325 l 984 233 l 503 233 l 334 18 l 263 75 l 388 233 l 172 233 l 172 325 l 448 325 l 586 503 l 172 503 l 172 595 l 647 595 l 818 809 l 889 754 "},"¥":{"x_min":-16,"x_max":712,"ha":692,"o":"m 287 0 l 287 433 l 18 433 l 18 501 l 252 501 l 195 616 l 18 616 l 18 684 l 159 684 l -16 1032 l 120 1032 l 348 540 l 586 1032 l 712 1032 l 533 684 l 675 684 l 675 616 l 497 616 l 439 501 l 675 501 l 675 433 l 405 433 l 405 0 l 287 0 "},"U":{"x_min":94,"x_max":706,"ha":800,"o":"m 94 1044 l 211 1044 l 211 341 q 252 137 211 194 q 394 80 294 80 q 543 143 495 80 q 592 341 592 206 l 592 1044 l 706 1044 l 706 362 q 691 175 706 230 q 640 78 676 121 q 535 2 598 28 q 392 -24 472 -24 q 245 4 310 -24 q 142 84 180 32 q 105 174 116 119 q 94 362 94 230 l 94 1044 "},"Ñ":{"x_min":93,"x_max":713,"ha":806,"o":"m 93 0 l 93 1044 l 249 1044 l 610 148 l 600 1044 l 713 1044 l 713 0 l 563 0 l 196 921 l 206 0 l 93 0 m 585 1309 q 546 1206 575 1241 q 472 1172 517 1172 q 453 1173 462 1172 q 432 1179 443 1175 l 373 1200 q 365 1202 370 1201 q 350 1202 360 1202 q 321 1190 334 1202 q 301 1158 308 1179 l 250 1158 q 294 1257 264 1223 q 369 1290 324 1290 q 383 1289 377 1290 q 397 1286 390 1288 l 469 1264 q 472 1263 470 1264 q 488 1261 483 1261 q 518 1273 507 1261 q 534 1309 530 1285 l 585 1309 "},"F":{"x_min":93,"x_max":575,"ha":600,"o":"m 93 0 l 93 1044 l 575 1044 l 575 938 l 212 938 l 212 603 l 549 603 l 549 494 l 212 494 l 212 0 l 93 0 "},"*":{"x_min":82,"x_max":609,"ha":694,"o":"m 345 716 l 224 540 l 145 596 l 281 762 l 82 817 l 112 910 l 304 840 l 304 1044 l 387 1044 l 387 840 l 574 907 l 609 818 l 410 762 l 544 596 l 466 540 l 345 716 "},"†":{"x_min":62,"x_max":630,"ha":694,"o":"m 290 -114 l 290 648 l 62 648 l 62 747 l 290 747 l 290 1044 l 403 1044 l 403 747 l 630 747 l 630 648 l 403 648 l 403 -114 l 290 -114 "},"∕":{"x_min":-232,"x_max":462,"ha":232,"o":"m -147 -21 l -232 -21 l 377 1051 l 462 1051 l -147 -21 "},"°":{"x_min":33,"x_max":423,"ha":457,"o":"m 359 793 q 321 885 359 847 q 229 923 283 923 q 135 885 174 923 q 97 793 97 847 q 135 699 97 738 q 229 661 174 661 q 321 699 283 661 q 359 793 359 738 m 228 987 q 365 929 308 987 q 423 790 423 872 q 366 653 423 710 q 227 597 309 597 q 89 653 145 597 q 33 790 33 709 q 90 929 33 872 q 228 987 147 987 "},"å":{"x_min":61,"x_max":590,"ha":619,"o":"m 245 971 q 265 924 245 945 q 311 904 286 904 q 358 924 338 904 q 378 971 378 944 q 358 1017 378 998 q 311 1037 338 1037 q 265 1017 285 1037 q 245 971 245 997 m 181 971 q 219 1062 181 1024 q 311 1101 257 1101 q 404 1063 366 1101 q 442 971 442 1025 q 403 878 442 916 q 311 840 365 840 q 219 878 257 840 q 181 971 181 916 m 417 421 q 303 361 391 392 q 292 357 296 358 q 193 297 216 330 q 171 198 171 263 q 196 107 171 139 q 269 76 222 76 q 376 127 336 76 q 417 266 417 179 l 417 421 m 590 -1 q 554 -6 569 -4 q 525 -8 538 -8 q 453 21 479 -8 q 424 103 426 50 q 352 11 399 43 q 239 -20 304 -20 q 108 37 155 -20 q 61 197 61 94 q 104 351 61 298 q 293 453 148 404 l 295 453 q 414 547 414 493 l 414 619 q 386 689 414 667 q 299 711 359 711 q 212 680 240 711 q 184 587 184 650 l 184 574 l 82 574 q 138 748 84 693 q 312 803 193 803 q 474 752 423 803 q 526 592 526 702 l 526 136 q 536 92 526 105 q 572 79 547 79 q 587 81 577 79 q 590 81 588 81 l 590 -1 "},"0":{"x_min":64,"x_max":628,"ha":692,"o":"m 185 519 q 221 173 185 266 q 347 81 257 81 q 472 164 437 81 q 507 518 507 248 q 471 859 507 769 q 346 949 435 949 q 220 863 255 949 q 185 519 185 777 m 64 516 q 129 930 64 810 q 346 1050 194 1050 q 477 1016 422 1050 q 571 912 531 982 q 614 767 600 858 q 628 515 628 676 q 563 101 628 224 q 350 -21 499 -21 q 129 99 194 -21 q 64 516 64 219 "},"":{"x_min":77,"x_max":1021,"ha":1097,"o":"m 567 824 q 566 834 566 828 q 565 849 565 839 q 630 1005 565 934 q 790 1094 694 1077 q 791 1079 791 1087 q 791 1052 791 1070 q 721 893 791 963 q 583 823 651 823 l 578 823 q 573 824 576 823 q 567 824 570 824 m 1021 273 q 881 40 943 105 q 743 -24 820 -24 q 654 -1 709 -24 q 571 20 599 20 q 482 -1 540 20 q 396 -24 424 -24 q 309 5 353 -24 q 221 95 265 35 q 114 295 152 190 q 77 499 77 401 q 161 741 77 648 q 380 835 246 835 q 485 811 426 835 q 569 788 544 788 q 652 812 592 788 q 755 836 711 836 q 889 809 830 836 q 999 725 949 782 q 896 626 929 680 q 863 502 863 571 q 903 366 863 425 q 1021 273 944 307 "},"”":{"x_min":109,"x_max":429,"ha":539,"o":"m 109 702 l 109 767 q 152 806 136 773 q 168 895 168 840 l 168 902 l 109 902 l 109 1044 l 232 1044 l 232 900 q 198 769 232 822 q 109 702 165 716 m 306 702 l 306 767 q 349 806 333 773 q 365 895 365 840 l 365 902 l 306 902 l 306 1044 l 429 1044 l 429 900 q 395 769 429 822 q 306 702 362 716 "},"ö":{"x_min":61,"x_max":610,"ha":671,"o":"m 61 389 q 128 701 61 600 q 335 803 196 803 q 543 702 476 803 q 610 389 610 602 q 543 78 610 177 q 335 -21 476 -21 q 126 77 192 -21 q 61 389 61 176 m 178 390 q 213 143 178 215 q 335 72 249 72 q 455 144 419 72 q 492 390 492 217 q 455 635 492 563 q 335 707 419 707 q 214 636 250 707 q 178 390 178 565 m 399 889 l 399 1004 l 505 1004 l 505 889 l 399 889 m 176 889 l 176 1004 l 282 1004 l 282 889 l 176 889 "},"Õ":{"x_min":72,"x_max":741,"ha":814,"o":"m 193 522 q 240 174 193 270 q 406 78 288 78 q 572 171 525 78 q 620 522 620 265 q 572 871 620 777 q 406 965 525 965 q 240 869 288 965 q 193 522 193 773 m 72 522 q 150 941 72 813 q 406 1069 229 1069 q 662 942 584 1069 q 741 522 741 816 q 663 101 741 227 q 406 -25 585 -25 q 151 103 230 -25 q 72 522 72 232 m 574 1309 q 535 1206 564 1241 q 461 1172 506 1172 q 442 1173 451 1172 q 421 1179 432 1175 l 362 1200 q 354 1202 359 1201 q 339 1202 349 1202 q 310 1190 323 1202 q 290 1158 297 1179 l 239 1158 q 283 1257 253 1223 q 358 1290 313 1290 q 372 1289 366 1290 q 386 1286 379 1288 l 458 1264 q 461 1263 459 1264 q 477 1261 472 1261 q 507 1273 496 1261 q 523 1309 519 1285 l 574 1309 "},"ć":{"x_min":64,"x_max":569,"ha":639,"o":"m 462 275 l 569 275 q 503 56 569 133 q 319 -21 438 -21 q 126 81 189 -21 q 64 396 64 183 q 129 701 64 600 q 326 802 194 802 q 499 735 436 802 q 563 553 563 668 l 563 537 l 457 537 q 421 661 453 618 q 331 704 389 704 q 216 633 250 704 q 182 392 182 562 q 216 148 182 220 q 332 77 251 77 q 426 127 393 77 q 462 275 459 178 m 247 864 l 362 1048 l 483 1048 l 315 864 l 247 864 "},"þ":{"x_min":83,"x_max":601,"ha":661,"o":"m 83 -264 l 83 1044 l 196 1044 l 196 701 q 255 773 213 747 q 353 799 296 799 q 539 696 477 799 q 601 392 601 594 q 543 82 601 181 q 363 -17 485 -17 q 264 9 309 -17 q 196 83 220 35 l 196 -264 l 83 -264 m 189 393 q 227 155 189 232 q 344 79 265 79 q 449 153 416 79 q 483 394 483 227 q 449 628 483 556 q 340 701 415 701 q 224 629 259 701 q 189 393 189 558 "},"]":{"x_min":39,"x_max":285,"ha":443,"o":"m 285 -295 l 39 -295 l 39 -212 l 172 -212 l 172 961 l 39 961 l 39 1044 l 285 1044 l 285 -295 "},"8":{"x_min":64,"x_max":628,"ha":692,"o":"m 345 953 q 246 908 280 953 q 212 779 212 864 q 248 659 212 704 q 345 614 284 614 q 448 658 412 614 q 485 784 485 702 q 447 908 485 863 q 345 953 410 953 m 183 311 q 224 138 183 196 q 348 81 266 81 q 466 137 423 81 q 509 293 509 194 q 467 460 509 406 q 341 514 426 514 q 224 461 265 514 q 183 311 183 408 m 246 563 q 135 639 172 584 q 99 783 99 693 q 165 980 99 909 q 350 1051 232 1051 q 531 981 464 1051 q 599 791 599 911 q 561 645 599 701 q 449 568 523 588 q 584 483 540 547 q 628 305 628 419 q 554 64 628 149 q 346 -21 480 -21 q 140 63 217 -21 q 64 290 64 147 q 112 476 64 404 q 246 563 160 549 "},"R":{"x_min":93,"x_max":757,"ha":811,"o":"m 207 565 l 348 565 q 528 612 471 565 q 586 759 586 659 q 535 898 586 855 q 371 942 484 942 l 207 942 l 207 565 m 93 0 l 93 1044 l 385 1044 q 626 977 547 1044 q 705 775 705 911 q 657 608 705 670 q 511 520 610 545 q 641 463 598 512 q 694 312 685 415 q 702 207 697 274 q 757 0 712 37 l 612 0 q 584 169 590 35 q 577 276 581 236 q 521 423 568 383 q 355 463 475 463 l 207 463 l 207 0 l 93 0 "},"o":{"x_min":61,"x_max":610,"ha":671,"o":"m 61 389 q 128 701 61 600 q 335 803 196 803 q 543 702 476 803 q 610 389 610 602 q 543 78 610 177 q 335 -21 476 -21 q 126 77 192 -21 q 61 389 61 176 m 178 390 q 213 143 178 215 q 335 72 249 72 q 455 144 419 72 q 492 390 492 217 q 455 635 492 563 q 335 707 419 707 q 214 636 250 707 q 178 390 178 565 "},"5":{"x_min":60,"x_max":618,"ha":692,"o":"m 60 275 l 174 275 l 174 266 q 214 130 174 178 q 329 82 255 82 q 454 147 411 82 q 497 336 497 212 q 454 522 497 460 q 326 584 411 584 q 232 558 270 584 q 179 487 194 533 l 81 495 l 138 1032 l 577 1032 l 577 926 l 228 926 l 190 614 q 250 669 205 648 q 354 690 295 690 q 547 599 476 690 q 618 351 618 509 q 542 76 618 174 q 330 -21 467 -21 q 130 55 199 -21 q 60 275 61 131 "},"õ":{"x_min":61,"x_max":610,"ha":671,"o":"m 61 389 q 128 701 61 600 q 335 803 196 803 q 543 702 476 803 q 610 389 610 602 q 543 78 610 177 q 335 -21 476 -21 q 126 77 192 -21 q 61 389 61 176 m 178 390 q 213 143 178 215 q 335 72 249 72 q 455 144 419 72 q 492 390 492 217 q 455 635 492 563 q 335 707 419 707 q 214 636 250 707 q 178 390 178 565 m 507 1030 q 468 927 497 962 q 394 893 439 893 q 375 894 384 893 q 354 900 365 896 l 295 921 q 287 923 292 922 q 272 923 282 923 q 243 911 256 923 q 223 879 230 900 l 172 879 q 216 978 186 944 q 291 1011 246 1011 q 305 1010 299 1011 q 319 1007 312 1009 l 391 985 q 394 984 392 985 q 410 982 405 982 q 440 994 429 982 q 456 1030 452 1006 l 507 1030 "},",":{"x_min":109,"x_max":232,"ha":347,"o":"m 109 -200 l 109 -134 q 151 -96 136 -129 q 167 -6 167 -63 l 167 0 l 109 0 l 109 143 l 232 143 l 232 0 q 198 -132 232 -78 q 109 -200 165 -185 "},"d":{"x_min":61,"x_max":580,"ha":661,"o":"m 477 395 q 443 633 477 566 q 329 701 410 701 q 216 628 253 701 q 180 404 180 555 q 214 158 180 234 q 325 82 249 82 q 441 153 406 82 q 477 395 477 225 m 580 0 l 477 0 l 477 98 q 416 15 462 46 q 308 -16 370 -16 q 124 94 187 -16 q 61 414 61 204 q 124 698 61 597 q 302 799 188 799 q 410 771 363 799 q 470 699 457 743 l 470 1044 l 580 1044 l 580 0 "},"\"":{"x_min":61,"x_max":355,"ha":416,"o":"m 355 974 l 355 598 l 261 598 l 261 974 l 355 974 m 155 974 l 155 598 l 61 598 l 61 974 l 155 974 "},"˙":{"x_min":282,"x_max":413,"ha":694,"o":"m 282 901 l 282 1050 l 413 1050 l 413 901 l 282 901 "},"ê":{"x_min":61,"x_max":550,"ha":611,"o":"m 174 475 l 439 475 l 439 496 q 407 658 439 603 q 312 713 375 713 q 208 654 242 713 q 174 475 174 595 m 440 264 l 547 264 q 483 52 545 125 q 307 -21 421 -21 q 121 77 181 -21 q 61 381 61 175 q 121 701 61 600 q 309 803 181 803 q 490 716 431 803 q 550 454 550 630 q 549 412 550 426 q 548 387 549 398 l 174 386 l 174 351 q 207 138 174 205 q 315 71 241 71 q 406 121 373 71 q 440 258 440 171 l 440 264 m 150 865 l 266 1048 l 380 1048 l 497 865 l 430 865 l 323 977 l 216 865 l 150 865 "},"„":{"x_min":109,"x_max":429,"ha":539,"o":"m 109 -200 l 109 -134 q 152 -95 136 -129 q 168 -6 168 -62 l 168 0 l 109 0 l 109 143 l 232 143 l 232 0 q 198 -132 232 -78 q 109 -200 165 -185 m 306 -200 l 306 -134 q 349 -95 333 -129 q 365 -6 365 -62 l 365 0 l 306 0 l 306 143 l 429 143 l 429 0 q 395 -132 429 -78 q 306 -200 362 -185 "},"Â":{"x_min":21,"x_max":743,"ha":764,"o":"m 241 407 l 519 407 l 380 953 l 241 407 m 21 0 l 305 1044 l 454 1044 l 743 0 l 625 0 l 545 301 l 214 301 l 138 0 l 21 0 m 209 1144 l 325 1327 l 439 1327 l 556 1144 l 489 1144 l 382 1256 l 275 1144 l 209 1144 "},"Í":{"x_min":70,"x_max":306,"ha":306,"o":"m 93 0 l 93 1044 l 212 1044 l 212 0 l 93 0 m 70 1143 l 185 1327 l 306 1327 l 138 1143 l 70 1143 "},"´":{"x_min":265,"x_max":501,"ha":694,"o":"m 265 864 l 380 1048 l 501 1048 l 333 864 l 265 864 "},"Ú":{"x_min":94,"x_max":706,"ha":800,"o":"m 94 1044 l 211 1044 l 211 341 q 252 137 211 194 q 394 80 294 80 q 543 143 495 80 q 592 341 592 206 l 592 1044 l 706 1044 l 706 362 q 691 175 706 230 q 640 78 676 121 q 535 2 598 28 q 392 -24 472 -24 q 245 4 310 -24 q 142 84 180 32 q 105 174 116 119 q 94 362 94 230 l 94 1044 m 318 1143 l 433 1327 l 554 1327 l 386 1143 l 318 1143 "},"Ý":{"x_min":-21,"x_max":717,"ha":697,"o":"m 288 0 l 288 404 l -21 1044 l 118 1044 l 349 530 l 590 1044 l 717 1044 l 406 404 l 406 0 l 288 0 m 266 1143 l 381 1327 l 502 1327 l 334 1143 l 266 1143 "},"Ω":{"x_min":53.109375,"x_max":1008.53125,"ha":1061,"o":"m 1008 121 l 1008 0 l 601 0 l 601 121 q 788 299 721 186 q 856 548 856 411 q 766 809 856 711 q 530 908 676 908 q 293 809 383 908 q 204 548 204 710 q 271 299 204 411 q 460 121 339 186 l 460 0 l 53 0 l 53 121 l 269 121 q 113 316 162 215 q 64 542 64 417 q 193 891 64 757 q 530 1025 323 1025 q 866 891 735 1025 q 997 548 997 758 q 948 316 997 417 q 791 121 900 216 l 1008 121 "},"Ö":{"x_min":72,"x_max":741,"ha":814,"o":"m 193 522 q 240 174 193 270 q 406 78 288 78 q 572 171 525 78 q 620 522 620 265 q 572 871 620 777 q 406 965 525 965 q 240 869 288 965 q 193 522 193 773 m 72 522 q 150 941 72 813 q 406 1069 229 1069 q 662 942 584 1069 q 741 522 741 816 q 663 101 741 227 q 406 -25 585 -25 q 151 103 230 -25 q 72 522 72 232 m 466 1168 l 466 1283 l 572 1283 l 572 1168 l 466 1168 m 243 1168 l 243 1283 l 349 1283 l 349 1168 l 243 1168 "},"z":{"x_min":32,"x_max":504,"ha":538,"o":"m 32 0 l 32 99 l 366 683 l 46 683 l 46 781 l 497 781 l 497 693 l 155 104 l 504 104 l 504 0 l 32 0 "},"™":{"x_min":164,"x_max":952,"ha":1157,"o":"m 652 989 l 754 727 l 850 989 l 952 989 l 952 624 l 886 624 l 886 925 l 773 624 l 735 624 l 617 925 l 617 624 l 551 624 l 551 989 l 652 989 m 471 989 l 471 935 l 354 935 l 354 624 l 281 624 l 281 935 l 164 935 l 164 989 l 471 989 "},"ã":{"x_min":61,"x_max":590,"ha":619,"o":"m 417 421 q 303 361 391 392 q 292 357 296 358 q 193 297 216 330 q 171 198 171 263 q 196 107 171 139 q 269 76 222 76 q 376 127 336 76 q 417 266 417 179 l 417 421 m 590 -1 q 554 -6 569 -4 q 525 -8 538 -8 q 453 21 479 -8 q 424 103 426 50 q 352 11 399 43 q 239 -20 304 -20 q 108 37 155 -20 q 61 197 61 94 q 104 351 61 298 q 293 453 148 404 l 295 453 q 414 547 414 493 l 414 619 q 386 689 414 667 q 299 711 359 711 q 212 680 240 711 q 184 587 184 650 l 184 574 l 82 574 q 138 748 84 693 q 312 803 193 803 q 474 752 423 803 q 526 592 526 702 l 526 136 q 536 92 526 105 q 572 79 547 79 q 587 81 577 79 q 590 81 588 81 l 590 -1 m 488 1030 q 449 927 478 962 q 375 893 420 893 q 356 894 365 893 q 335 900 346 896 l 276 921 q 268 923 273 922 q 253 923 263 923 q 224 911 237 923 q 204 879 211 900 l 153 879 q 197 978 167 944 q 272 1011 227 1011 q 286 1010 280 1011 q 300 1007 293 1009 l 372 985 q 375 984 373 985 q 391 982 386 982 q 421 994 410 982 q 437 1030 433 1006 l 488 1030 "},"æ":{"x_min":64,"x_max":903,"ha":965,"o":"m 524 475 l 790 475 l 790 500 q 756 658 790 604 q 659 713 723 713 q 558 658 591 713 q 524 494 524 604 l 524 475 m 421 421 q 310 362 400 394 q 295 357 300 359 q 197 297 220 331 q 174 198 174 264 q 199 109 174 141 q 272 78 225 78 q 381 129 341 78 q 421 275 421 181 l 421 421 m 456 115 q 355 12 407 45 q 242 -20 303 -20 q 111 37 158 -20 q 64 197 64 94 q 79 298 64 256 q 129 372 95 340 q 277 445 166 406 q 328 464 311 457 q 389 490 374 480 q 413 511 405 499 q 421 530 418 518 q 423 565 423 542 l 423 603 q 394 687 423 659 q 305 716 364 716 q 218 683 249 716 q 187 591 187 650 q 188 582 187 588 q 189 574 189 576 l 86 574 q 142 748 88 693 q 316 803 197 803 q 428 783 385 803 q 496 721 471 763 q 567 782 526 761 q 662 803 608 803 q 842 715 782 803 q 903 456 903 628 q 902 430 903 443 q 900 387 902 416 l 522 386 q 520 360 521 374 q 520 319 520 346 q 554 130 520 186 q 666 74 588 74 q 759 122 728 74 q 791 264 791 170 l 898 264 q 835 53 897 126 q 658 -20 773 -20 q 535 14 585 -20 q 456 115 484 48 "},"É":{"x_min":93,"x_max":615,"ha":681,"o":"m 93 0 l 93 1044 l 610 1044 l 610 935 l 208 935 l 208 600 l 584 600 l 584 494 l 208 494 l 208 110 l 615 110 l 615 0 l 93 0 m 281 1143 l 396 1327 l 517 1327 l 349 1143 l 281 1143 "},"~":{"x_min":121,"x_max":1038,"ha":1157,"o":"m 1038 417 q 903 344 967 367 q 774 321 838 321 q 600 360 711 321 q 577 369 585 366 l 567 372 q 382 414 447 414 q 263 388 325 414 q 121 307 201 363 l 121 412 q 258 485 192 461 q 383 510 323 510 q 469 500 425 510 q 580 467 514 491 q 612 455 591 464 q 775 417 720 417 q 897 442 835 417 q 1038 523 959 467 l 1038 417 "},"³":{"x_min":36,"x_max":411,"ha":457,"o":"m 36 598 l 113 598 l 113 587 q 139 491 113 523 q 218 460 165 460 q 304 492 275 460 q 334 587 334 524 q 300 679 334 649 q 196 710 266 710 q 181 709 185 710 q 172 708 176 709 l 172 766 l 187 766 q 283 792 253 766 q 314 876 314 819 q 287 953 314 925 q 213 981 261 981 q 145 952 168 981 q 122 865 122 923 l 122 856 l 49 856 l 49 864 q 93 994 49 946 q 216 1042 138 1042 q 343 999 296 1042 q 390 885 390 957 q 363 789 390 827 q 292 743 337 751 q 382 695 353 733 q 411 590 411 658 q 360 448 411 498 q 218 399 310 399 q 82 448 129 399 q 36 591 36 498 l 36 598 "},"¡":{"x_min":117,"x_max":243,"ha":359,"o":"m 123 1044 l 238 1044 l 238 902 l 123 902 l 123 1044 m 146 787 l 214 787 l 243 296 l 243 0 l 117 0 l 117 296 l 146 787 "},"[":{"x_min":158,"x_max":404,"ha":443,"o":"m 158 -295 l 158 1044 l 404 1044 l 404 961 l 271 961 l 271 -212 l 404 -212 l 404 -295 l 158 -295 "},"%":{"x_min":64,"x_max":906,"ha":970,"o":"m 715 427 q 643 386 664 427 q 622 242 622 345 q 644 121 622 159 q 715 83 667 83 q 787 126 764 83 q 810 262 810 169 q 786 386 810 345 q 715 427 763 427 m 526 259 q 572 447 526 385 q 713 510 619 510 q 858 448 811 510 q 906 259 906 387 q 857 66 906 133 q 716 0 808 0 q 572 63 618 0 q 526 259 526 126 m 252 949 q 180 908 201 949 q 160 764 160 868 q 181 643 160 681 q 252 605 203 605 q 325 648 302 605 q 348 784 348 691 q 324 908 348 867 q 252 949 300 949 m 64 781 q 110 969 64 907 q 251 1032 157 1032 q 396 970 349 1032 q 444 783 444 909 q 394 589 444 656 q 252 522 345 522 q 110 585 156 522 q 64 781 64 648 m 206 -19 l 679 1050 l 757 1050 l 287 -19 l 206 -19 "},"P":{"x_min":93,"x_max":689,"ha":736,"o":"m 210 544 l 362 544 q 518 594 468 544 q 568 753 568 645 q 517 898 568 853 q 355 943 467 943 l 210 943 l 210 544 m 93 0 l 93 1044 l 360 1044 q 610 973 531 1044 q 689 752 689 903 q 606 517 689 596 q 365 438 524 438 l 210 438 l 210 0 l 93 0 "},"∏":{"x_min":106,"x_max":945,"ha":1051,"o":"m 106 999 l 945 999 l 945 -266 l 782 -266 l 782 860 l 269 860 l 269 -266 l 106 -266 l 106 999 "},"_":{"x_min":0,"x_max":694,"ha":694,"o":"m 694 -231 l 694 -328 l 0 -328 l 0 -231 l 694 -231 "},"ñ":{"x_min":83,"x_max":572,"ha":653,"o":"m 83 0 l 83 781 l 185 781 l 185 683 q 262 769 214 740 q 381 798 311 798 q 528 745 484 798 q 572 565 572 693 l 572 0 l 462 0 l 462 573 q 434 668 462 637 q 352 700 407 700 q 236 653 279 700 q 193 529 193 607 l 193 0 l 83 0 m 506 1030 q 467 927 496 962 q 393 893 438 893 q 374 894 383 893 q 353 900 364 896 l 294 921 q 286 923 291 922 q 271 923 281 923 q 242 911 255 923 q 222 879 229 900 l 171 879 q 215 978 185 944 q 290 1011 245 1011 q 304 1010 298 1011 q 318 1007 311 1009 l 390 985 q 393 984 391 985 q 409 982 404 982 q 439 994 428 982 q 455 1030 451 1006 l 506 1030 "},"‚":{"x_min":109,"x_max":232,"ha":340,"o":"m 109 -200 l 109 -134 q 152 -95 136 -129 q 168 -6 168 -62 l 168 0 l 109 0 l 109 143 l 232 143 l 232 0 q 198 -132 232 -78 q 109 -200 165 -185 "},"Æ":{"x_min":-18,"x_max":1028,"ha":1093,"o":"m 261 407 l 506 407 l 506 935 l 461 935 l 261 407 m -18 0 l 386 1044 l 1023 1044 l 1023 935 l 621 935 l 621 600 l 996 600 l 996 494 l 621 494 l 621 110 l 1028 110 l 1028 0 l 506 0 l 506 301 l 220 301 l 107 0 l -18 0 "},"₣":{"x_min":93,"x_max":1012,"ha":1004,"o":"m 93 0 l 93 1044 l 575 1044 l 575 938 l 212 938 l 212 603 l 549 603 l 549 494 l 212 494 l 212 0 l 93 0 m 683 0 l 683 781 l 784 781 l 784 653 q 855 760 808 721 q 965 799 903 799 q 993 798 983 799 q 1012 796 1003 797 l 1012 679 q 992 686 1003 684 q 969 689 982 689 q 838 633 885 689 q 792 478 792 577 l 792 0 l 683 0 "},"ğ":{"x_min":62,"x_max":579,"ha":660,"o":"m 177 388 q 211 154 177 225 q 322 84 245 84 q 438 155 403 84 q 473 398 473 227 q 436 632 473 560 q 320 705 400 705 q 210 631 244 705 q 177 388 177 557 m 86 -72 l 195 -72 q 230 -144 198 -120 q 322 -168 262 -168 q 437 -115 401 -168 q 473 53 473 -63 q 472 70 473 56 q 471 94 471 83 q 404 14 447 41 q 298 -12 360 -12 q 120 93 179 -12 q 62 413 62 198 q 123 702 62 605 q 306 799 184 799 q 411 770 368 799 q 473 688 455 741 l 473 781 l 579 781 l 579 36 q 509 -185 579 -107 q 313 -264 440 -264 q 149 -211 213 -264 q 86 -76 86 -158 l 86 -72 m 158 1043 l 222 1043 q 254 980 228 999 q 330 961 279 961 q 405 980 380 961 q 437 1043 430 1000 l 501 1043 q 451 910 492 952 q 330 869 410 869 q 207 910 249 869 q 158 1043 166 952 "},"ª":{"x_min":46,"x_max":443,"ha":465,"o":"m 314 792 q 226 751 294 773 l 219 749 q 144 706 161 729 q 127 637 127 683 q 146 575 127 597 q 202 553 166 553 q 283 588 253 553 q 314 685 314 624 l 314 792 m 443 497 q 417 494 429 495 q 394 493 404 493 q 340 513 359 493 q 319 571 320 533 q 265 507 301 530 q 180 485 229 485 q 81 524 116 485 q 46 636 46 564 q 78 744 46 707 q 219 815 111 781 l 220 815 q 311 881 311 844 l 311 931 q 290 979 311 964 q 225 995 269 995 q 159 974 180 995 q 139 909 139 953 l 139 900 l 62 900 q 104 1022 63 984 q 234 1061 146 1061 q 356 1025 317 1061 q 395 914 395 989 l 395 594 q 403 563 395 573 q 429 554 411 554 q 435 554 431 554 q 443 555 440 555 l 443 497 "},"Œ":{"x_min":71,"x_max":1120,"ha":1185,"o":"m 598 337 l 598 721 q 551 906 598 848 q 406 965 505 965 q 242 870 290 965 q 194 543 194 776 q 240 174 194 271 q 406 78 287 78 q 553 137 508 78 q 598 337 598 197 m 598 0 l 598 90 q 517 4 570 33 q 387 -25 465 -25 q 147 106 224 -25 q 71 522 71 238 q 147 937 71 805 q 387 1069 224 1069 q 517 1039 465 1069 q 598 953 570 1010 l 598 1044 l 1115 1044 l 1115 935 l 712 935 l 712 600 l 1088 600 l 1088 494 l 712 494 l 712 110 l 1120 110 l 1120 0 l 598 0 "},"T":{"x_min":20,"x_max":656,"ha":675,"o":"m 287 0 l 287 937 l 20 937 l 20 1044 l 656 1044 l 656 937 l 406 937 l 406 0 l 287 0 "},"š":{"x_min":62,"x_max":554,"ha":616,"o":"m 62 235 l 170 235 q 170 230 170 233 q 168 208 168 215 q 204 111 168 144 q 309 78 240 78 q 408 111 372 78 q 445 204 445 145 q 303 345 445 296 l 301 346 q 117 444 159 395 q 75 585 75 493 q 135 745 75 688 q 302 803 195 803 q 474 748 416 803 q 532 585 532 693 l 532 575 l 428 575 q 396 677 424 645 q 307 710 367 710 q 211 679 243 710 q 179 589 179 649 q 187 542 179 563 q 212 508 195 521 q 330 454 242 482 q 404 429 378 439 q 519 350 484 398 q 554 223 554 302 q 486 42 554 106 q 294 -21 418 -21 q 120 39 179 -21 q 62 218 62 100 l 62 235 m 135 1048 l 201 1048 l 308 935 l 415 1048 l 482 1048 l 365 865 l 251 865 l 135 1048 "},"Þ":{"x_min":93,"x_max":689,"ha":736,"o":"m 210 357 l 362 357 q 518 407 468 357 q 568 567 568 458 q 517 711 568 666 q 355 756 467 756 l 210 756 l 210 357 m 93 0 l 93 1044 l 210 1044 l 210 858 l 360 858 q 610 788 532 858 q 689 567 689 718 q 606 332 689 412 q 365 252 524 252 l 210 252 l 210 0 l 93 0 "},"j":{"x_min":14,"x_max":209,"ha":289,"o":"m 100 904 l 100 1044 l 209 1044 l 209 903 l 100 904 m 14 -262 l 14 -169 l 20 -169 q 83 -150 67 -169 q 100 -66 100 -131 l 100 781 l 209 781 l 209 -74 q 166 -217 209 -173 q 28 -262 124 -262 l 14 -262 "},"1":{"x_min":104,"x_max":439,"ha":692,"o":"m 326 0 l 326 768 l 104 768 l 104 857 l 117 857 q 285 904 228 857 q 347 1051 341 951 l 439 1051 l 439 0 l 326 0 "},"›":{"x_min":89,"x_max":294,"ha":383,"o":"m 89 654 l 294 438 l 294 338 l 89 126 l 89 252 l 222 388 l 89 527 l 89 654 "},"<":{"x_min":179,"x_max":978,"ha":1157,"o":"m 978 682 l 320 413 l 978 147 l 978 43 l 179 371 l 179 458 l 978 786 l 978 682 "},"t":{"x_min":-7,"x_max":334.671875,"ha":342,"o":"m 208 161 q 225 97 208 112 q 309 82 243 82 q 324 82 318 82 q 334 83 329 82 l 334 -12 q 307 -13 324 -13 q 254 -16 265 -16 q 139 14 177 -16 q 102 108 102 45 l 102 691 l -7 691 l -7 781 l 102 781 l 102 989 l 208 989 l 208 781 l 334 781 l 334 691 l 208 691 l 208 161 "},"¬":{"x_min":172,"x_max":984,"ha":1157,"o":"m 984 583 l 984 243 l 891 243 l 891 489 l 172 489 l 172 583 l 984 583 "},"ù":{"x_min":81,"x_max":564,"ha":653,"o":"m 462 0 l 462 102 q 389 10 439 42 q 268 -21 338 -21 q 125 27 170 -21 q 81 180 81 75 l 81 781 l 195 781 l 195 178 q 219 103 195 129 q 286 77 243 77 q 408 125 364 77 q 453 262 453 174 l 453 781 l 564 781 l 564 0 l 462 0 m 404 865 l 335 865 l 168 1048 l 288 1048 l 404 865 "},"ï":{"x_min":-25,"x_max":304,"ha":277,"o":"m 82 0 l 82 781 l 195 781 l 195 0 l 82 0 m 198 889 l 198 1004 l 304 1004 l 304 889 l 198 889 m -25 889 l -25 1004 l 81 1004 l 81 889 l -25 889 "},"Ò":{"x_min":72,"x_max":741,"ha":814,"o":"m 193 522 q 240 174 193 270 q 406 78 288 78 q 572 171 525 78 q 620 522 620 265 q 572 871 620 777 q 406 965 525 965 q 240 869 288 965 q 193 522 193 773 m 72 522 q 150 941 72 813 q 406 1069 229 1069 q 662 942 584 1069 q 741 522 741 816 q 663 101 741 227 q 406 -25 585 -25 q 151 103 230 -25 q 72 522 72 232 m 489 1144 l 420 1144 l 253 1327 l 373 1327 l 489 1144 "},"&":{"x_min":78,"x_max":831,"ha":850,"o":"m 375 660 q 459 743 429 696 q 489 841 489 790 q 462 921 489 892 q 392 951 436 951 q 321 921 346 951 q 296 840 296 892 q 316 759 296 806 q 375 660 337 711 m 567 187 l 337 521 q 230 418 265 473 q 196 293 196 362 q 250 146 196 206 q 385 86 305 86 q 484 112 437 86 q 567 187 531 139 m 696 0 l 624 101 q 508 12 575 43 q 365 -18 442 -18 q 158 67 238 -18 q 78 287 78 152 q 127 460 78 386 q 286 599 177 534 q 212 723 238 661 q 186 835 186 785 q 243 988 186 929 q 394 1047 301 1047 q 541 990 483 1047 q 599 845 599 933 q 555 703 599 769 q 425 585 512 638 l 625 293 q 645 376 636 326 q 659 487 654 425 l 770 487 q 743 324 763 396 q 690 202 723 251 l 831 0 l 696 0 "},"":{"x_min":22,"x_max":664,"ha":692,"o":"m 500 475 l 483 409 l 241 409 q 282 152 245 223 q 407 81 320 81 q 511 138 476 81 q 550 320 546 195 l 664 320 q 589 59 653 140 q 396 -21 525 -21 q 193 78 258 -21 q 119 409 128 178 l 22 409 l 38 475 l 118 475 q 118 546 118 522 q 119 590 118 569 l 27 590 l 44 657 l 122 657 q 200 961 134 872 q 409 1050 265 1050 q 588 982 528 1050 q 657 768 648 914 l 544 768 q 503 904 537 859 q 408 949 470 949 q 286 885 323 949 q 241 657 248 821 l 545 657 l 528 590 l 239 590 q 238 561 239 580 q 237 533 237 541 q 238 504 237 523 q 239 475 239 485 l 500 475 "},"˝":{"x_min":211,"x_max":599,"ha":694,"o":"m 386 865 l 486 1101 l 599 1101 l 451 865 l 386 865 m 211 865 l 290 1101 l 404 1101 l 276 865 l 211 865 "},"I":{"x_min":93,"x_max":212,"ha":306,"o":"m 93 0 l 93 1044 l 212 1044 l 212 0 l 93 0 "},"G":{"x_min":72,"x_max":737,"ha":823,"o":"m 646 0 l 639 144 q 549 18 611 62 q 399 -25 487 -25 q 151 109 231 -25 q 72 528 72 243 q 155 940 72 812 q 423 1069 239 1069 q 645 984 565 1069 q 726 746 724 899 l 611 746 q 557 910 607 852 q 417 969 507 969 q 244 862 296 969 q 193 495 193 756 q 247 185 193 286 q 415 85 302 85 q 572 163 518 85 q 626 392 626 242 q 625 420 626 410 q 624 439 625 430 l 388 439 l 388 545 l 737 545 l 737 0 l 646 0 "},"`":{"x_min":193,"x_max":429,"ha":694,"o":"m 429 865 l 360 865 l 193 1048 l 313 1048 l 429 865 "},"·":{"x_min":85,"x_max":261,"ha":347,"o":"m 85 516 q 110 578 85 553 q 172 604 135 604 q 235 578 210 604 q 261 516 261 553 q 234 453 261 479 q 172 428 208 428 q 110 453 135 428 q 85 516 85 479 "},"¿":{"x_min":104,"x_max":623,"ha":690,"o":"m 441 1044 l 441 902 l 326 902 l 326 1044 l 441 1044 m 435 781 q 436 757 436 769 q 437 728 437 745 q 416 603 437 657 q 325 465 396 549 q 313 451 321 460 q 226 242 226 347 q 262 120 226 165 q 361 76 299 76 q 471 128 433 76 q 510 282 510 181 l 510 304 l 623 304 l 623 285 q 556 55 623 134 q 364 -24 490 -24 q 174 48 244 -24 q 104 243 104 120 q 126 368 104 312 q 227 516 149 424 l 228 517 q 330 741 330 636 q 328 770 330 749 q 327 781 328 776 l 435 781 "},"ý":{"x_min":24,"x_max":593,"ha":616,"o":"m 53 -249 l 53 -151 q 87 -161 70 -158 q 120 -165 104 -165 q 197 -132 169 -165 q 253 -6 225 -99 l 24 781 l 142 781 l 308 151 l 481 781 l 593 781 l 352 -34 q 265 -214 314 -167 q 125 -262 215 -262 q 92 -258 111 -262 q 53 -249 74 -255 m 226 864 l 341 1048 l 462 1048 l 294 864 l 226 864 "},"º":{"x_min":46,"x_max":457,"ha":503,"o":"m 46 772 q 96 989 46 918 q 251 1061 147 1061 q 406 990 356 1061 q 457 772 457 920 q 407 554 457 623 q 251 485 357 485 q 95 553 144 485 q 46 772 46 622 m 133 772 q 160 599 133 649 q 251 549 187 549 q 342 600 314 549 q 370 772 370 651 q 342 941 370 891 q 251 992 314 992 q 159 942 186 992 q 133 772 133 893 "},"∞":{"x_min":150,"x_max":1009,"ha":1157,"o":"m 620 378 q 699 288 654 319 q 801 258 744 258 q 913 303 870 258 q 957 421 957 349 q 917 535 957 489 q 816 580 877 580 q 716 534 761 580 q 620 378 671 488 m 538 451 q 459 541 504 511 q 357 571 414 571 q 245 526 288 571 q 202 409 202 481 q 241 295 202 340 q 342 250 281 250 q 443 296 397 250 q 538 451 488 342 m 586 327 q 485 192 538 235 q 368 150 432 150 q 213 225 276 150 q 150 413 150 301 q 206 605 150 532 q 354 679 263 679 q 470 636 418 679 q 571 499 522 593 q 671 637 617 593 q 790 682 724 682 q 945 606 881 682 q 1009 416 1009 529 q 952 225 1009 297 q 804 152 895 152 q 690 192 740 152 q 586 327 639 233 "},";":{"x_min":111,"x_max":234,"ha":347,"o":"m 111 628 l 111 771 l 234 771 l 234 628 l 111 628 m 111 -200 l 111 -134 q 154 -95 138 -129 q 170 -6 170 -62 l 170 0 l 111 0 l 111 143 l 234 143 l 234 0 q 200 -132 234 -78 q 111 -200 167 -185 "},"6":{"x_min":65,"x_max":637,"ha":692,"o":"m 189 338 q 233 146 189 214 q 359 79 277 79 q 476 145 435 79 q 518 334 518 211 q 475 510 518 450 q 351 571 433 571 q 228 515 267 571 q 189 338 189 459 m 174 540 q 250 637 199 603 q 370 671 300 671 q 566 583 495 671 q 637 340 637 495 q 561 76 637 173 q 359 -21 486 -21 q 135 97 205 -21 q 65 479 65 216 q 135 918 65 785 q 366 1051 206 1051 q 542 983 477 1051 q 608 801 608 915 l 493 801 l 493 807 q 458 911 493 873 q 362 950 423 950 q 228 865 269 950 q 174 540 187 781 "},"n":{"x_min":83,"x_max":572,"ha":653,"o":"m 83 0 l 83 781 l 185 781 l 185 683 q 262 769 214 740 q 381 798 311 798 q 528 745 484 798 q 572 565 572 693 l 572 0 l 462 0 l 462 573 q 434 668 462 637 q 352 700 407 700 q 236 653 279 700 q 193 529 193 607 l 193 0 l 83 0 "},"¤":{"x_min":22,"x_max":664,"ha":692,"o":"m 500 475 l 483 409 l 241 409 q 282 152 245 223 q 407 81 320 81 q 511 138 476 81 q 550 320 546 195 l 664 320 q 589 59 653 140 q 396 -21 525 -21 q 193 78 258 -21 q 119 409 128 178 l 22 409 l 38 475 l 118 475 q 118 546 118 522 q 119 590 118 569 l 27 590 l 44 657 l 122 657 q 200 961 134 872 q 409 1050 265 1050 q 588 982 528 1050 q 657 768 648 914 l 544 768 q 503 904 537 859 q 408 949 470 949 q 286 885 323 949 q 241 657 248 821 l 545 657 l 528 590 l 239 590 q 238 561 239 580 q 237 533 237 541 q 238 504 237 523 q 239 475 239 485 l 500 475 "},"∂":{"x_min":71,"x_max":652,"ha":718,"o":"m 513 421 q 528 535 523 480 q 533 641 533 591 q 508 773 533 729 q 435 818 484 818 q 349 778 397 818 q 275 739 300 739 q 235 754 251 739 q 219 790 219 769 q 267 865 219 832 q 385 899 316 899 q 579 793 507 899 q 652 510 652 688 q 554 132 652 282 q 311 -17 456 -17 q 139 56 208 -17 q 71 240 71 129 q 145 461 71 374 q 330 549 220 549 q 443 518 399 549 q 513 421 487 487 m 480 335 q 450 456 480 414 q 367 499 421 499 q 245 411 293 499 q 198 183 198 323 q 227 62 198 104 q 310 21 256 21 q 432 109 384 21 q 480 335 480 197 "},"p":{"x_min":83,"x_max":601,"ha":661,"o":"m 189 393 q 227 155 189 232 q 344 79 265 79 q 449 153 416 79 q 483 394 483 227 q 449 628 483 556 q 340 701 415 701 q 224 630 258 701 q 189 393 189 559 m 83 -264 l 83 781 l 189 781 l 189 682 q 247 766 201 733 q 353 799 294 799 q 539 696 477 799 q 601 392 601 594 q 543 82 601 181 q 363 -17 485 -17 q 264 9 308 -17 q 196 83 221 35 l 196 -264 l 83 -264 "},"‡":{"x_min":69,"x_max":623,"ha":694,"o":"m 290 -114 l 290 173 l 69 173 l 69 271 l 290 271 l 290 659 l 69 659 l 69 757 l 290 757 l 290 1044 l 403 1044 l 403 757 l 623 757 l 623 659 l 403 659 l 403 271 l 623 271 l 623 173 l 403 173 l 403 -114 l 290 -114 "},"√":{"x_min":41,"x_max":885,"ha":885,"o":"m 756 1126 l 885 1126 l 885 1061 l 806 1061 l 403 -28 l 359 -28 l 142 570 l 57 540 l 41 594 l 233 661 l 406 180 l 756 1126 "},"S":{"x_min":69,"x_max":675,"ha":745,"o":"m 70 331 l 182 331 l 182 293 q 231 133 182 187 q 376 79 280 79 q 512 131 463 79 q 562 274 562 183 q 531 387 562 348 q 395 467 501 427 q 325 493 370 476 q 172 563 198 540 q 107 654 128 601 q 86 778 86 708 q 161 992 86 915 q 370 1069 236 1069 q 570 997 498 1069 q 643 801 643 926 q 642 788 643 797 q 641 775 641 779 l 534 775 l 534 785 q 491 921 534 873 q 369 969 448 969 q 241 923 288 969 q 195 799 195 877 q 226 685 195 725 q 365 605 258 644 q 403 591 378 600 q 598 500 567 530 q 656 413 637 464 q 675 289 675 361 q 592 58 675 141 q 364 -24 510 -24 q 143 57 218 -24 q 69 296 69 138 q 69 313 69 301 q 70 331 70 325 "},"/":{"x_min":-53,"x_max":395,"ha":386,"o":"m 395 1069 l 22 -129 l -53 -129 l 319 1069 l 395 1069 "},"y":{"x_min":24,"x_max":593,"ha":616,"o":"m 53 -249 l 53 -151 q 87 -161 70 -158 q 120 -165 104 -165 q 197 -132 169 -165 q 253 -6 225 -99 l 24 781 l 142 781 l 308 151 l 481 781 l 593 781 l 352 -34 q 265 -214 314 -167 q 125 -262 215 -262 q 92 -258 111 -262 q 53 -249 74 -255 "},"≈":{"x_min":121,"x_max":1038,"ha":1157,"o":"m 1038 292 q 902 219 966 242 q 774 196 838 196 q 580 242 709 196 q 382 288 451 288 q 265 263 326 288 q 121 180 205 239 l 121 286 q 259 360 194 336 q 383 385 324 385 q 590 338 461 385 q 775 292 719 292 q 895 316 835 292 q 1038 397 955 340 l 1038 292 m 1038 542 q 902 469 966 492 q 774 446 838 446 q 580 492 709 446 q 382 539 451 539 q 265 514 325 539 q 121 431 205 489 l 121 537 q 258 610 192 586 q 383 635 323 635 q 590 588 462 635 q 775 542 719 542 q 894 565 834 542 q 1038 648 953 589 l 1038 542 "},"g":{"x_min":62,"x_max":579,"ha":660,"o":"m 177 388 q 211 154 177 225 q 322 84 245 84 q 438 155 403 84 q 473 398 473 227 q 436 632 473 560 q 320 705 400 705 q 210 631 244 705 q 177 388 177 557 m 86 -72 l 195 -72 q 230 -144 198 -120 q 322 -168 262 -168 q 437 -115 401 -168 q 473 53 473 -63 q 472 70 473 56 q 471 94 471 83 q 404 14 447 41 q 298 -12 360 -12 q 120 93 179 -12 q 62 413 62 198 q 123 702 62 605 q 306 799 184 799 q 411 770 368 799 q 473 688 455 741 l 473 781 l 579 781 l 579 36 q 509 -185 579 -107 q 313 -264 440 -264 q 149 -211 213 -264 q 86 -76 86 -158 l 86 -72 "},"²":{"x_min":45,"x_max":411,"ha":457,"o":"m 45 411 l 45 434 q 74 550 45 497 q 164 654 103 604 q 197 680 176 663 q 290 762 267 737 q 318 806 310 781 q 327 868 327 831 q 300 951 327 922 q 225 981 274 981 q 150 948 175 981 q 125 851 125 916 l 125 831 l 52 831 q 51 841 52 834 q 50 852 50 849 q 97 993 50 944 q 228 1043 143 1043 q 359 997 312 1043 q 406 872 406 952 q 397 799 406 830 q 368 742 388 769 q 283 666 349 714 q 252 642 262 650 q 151 550 180 588 q 122 475 123 513 l 411 474 l 411 411 l 45 411 "},"ë":{"x_min":61,"x_max":550,"ha":611,"o":"m 174 475 l 439 475 l 439 496 q 407 658 439 603 q 312 713 375 713 q 208 654 242 713 q 174 475 174 595 m 440 264 l 547 264 q 483 52 545 125 q 307 -21 421 -21 q 121 77 181 -21 q 61 381 61 175 q 121 701 61 600 q 309 803 181 803 q 490 716 431 803 q 550 454 550 630 q 549 412 550 426 q 548 387 549 398 l 174 386 l 174 351 q 207 138 174 205 q 315 71 241 71 q 406 121 373 71 q 440 258 440 171 l 440 264 m 382 889 l 382 1004 l 488 1004 l 488 889 l 382 889 m 159 889 l 159 1004 l 265 1004 l 265 889 l 159 889 "},"–":{"x_min":0,"x_max":694,"ha":694,"o":"m 0 340 l 0 440 l 694 440 l 694 340 l 0 340 "},"ƒ":{"x_min":10,"x_max":687,"ha":692,"o":"m 320 577 l 168 577 l 168 666 l 334 666 l 353 771 q 434 991 383 930 q 583 1053 486 1053 q 635 1047 610 1053 q 687 1031 661 1042 l 661 935 q 620 949 639 944 q 586 955 601 955 q 499 896 528 955 q 447 666 469 838 l 613 666 l 613 577 l 433 577 l 367 160 q 271 -187 324 -112 q 113 -262 219 -262 q 61 -256 86 -262 q 10 -239 35 -251 l 35 -144 q 76 -158 57 -153 q 110 -164 95 -164 q 248 118 203 -164 l 249 125 l 320 577 "},"J":{"x_min":24,"x_max":492,"ha":585,"o":"m 24 323 l 137 323 l 137 222 q 166 111 137 148 q 254 75 196 75 q 351 118 324 75 q 379 312 379 161 l 379 1044 l 492 1044 l 492 232 q 432 39 492 102 q 249 -24 372 -24 q 80 42 137 -24 q 24 238 24 108 l 24 323 "},"Ã":{"x_min":21,"x_max":743,"ha":764,"o":"m 241 407 l 519 407 l 380 953 l 241 407 m 21 0 l 305 1044 l 454 1044 l 743 0 l 625 0 l 545 301 l 214 301 l 138 0 l 21 0 m 549 1309 q 510 1206 539 1241 q 436 1172 481 1172 q 417 1173 426 1172 q 396 1179 407 1175 l 337 1200 q 329 1202 334 1201 q 314 1202 324 1202 q 285 1190 298 1202 q 265 1158 272 1179 l 214 1158 q 258 1257 228 1223 q 333 1290 288 1290 q 347 1289 341 1290 q 361 1286 354 1288 l 433 1264 q 436 1263 434 1264 q 452 1261 447 1261 q 482 1273 471 1261 q 498 1309 494 1285 l 549 1309 "},"©":{"x_min":79,"x_max":1079,"ha":1157,"o":"m 714 615 q 669 695 705 667 q 575 724 633 724 q 463 662 504 724 q 423 493 423 601 q 464 327 423 386 q 582 268 506 268 q 674 299 637 268 q 721 387 711 331 l 819 387 q 746 244 812 299 q 577 189 679 189 q 384 270 454 189 q 314 497 314 351 q 387 715 314 632 q 581 799 461 799 q 742 748 678 799 q 813 615 806 697 l 714 615 m 1014 492 q 981 659 1014 580 q 888 799 949 738 q 746 894 825 861 q 579 927 668 927 q 414 895 492 927 q 275 802 336 863 q 177 658 211 739 q 144 492 144 578 q 177 328 144 406 q 273 186 210 249 q 414 91 335 124 q 579 59 492 59 q 744 92 664 59 q 888 188 823 125 q 982 325 950 248 q 1014 492 1014 403 m 577 993 q 771 956 680 993 q 933 847 861 919 q 1041 685 1003 777 q 1079 493 1079 593 q 1042 302 1079 391 q 934 142 1005 212 q 767 31 859 70 q 577 -7 676 -7 q 388 30 479 -7 q 226 141 298 68 q 116 303 154 212 q 79 493 79 393 q 116 683 79 592 q 227 848 154 775 q 387 956 298 919 q 577 993 477 993 "},"˘":{"x_min":175,"x_max":518,"ha":694,"o":"m 175 1043 l 239 1043 q 271 980 245 999 q 347 961 296 961 q 422 980 397 961 q 454 1043 447 1000 l 518 1043 q 468 910 509 952 q 347 869 427 869 q 224 910 266 869 q 175 1043 183 952 "},"≥":{"x_min":178,"x_max":981,"ha":1157,"o":"m 981 110 l 981 16 l 178 16 l 178 110 l 981 110 m 981 550 l 981 467 l 178 200 l 178 301 l 814 508 l 178 718 l 178 818 l 981 550 "},"D":{"x_min":93,"x_max":735,"ha":808,"o":"m 210 100 l 361 100 q 475 114 434 100 q 538 163 515 129 q 591 296 575 216 q 608 520 608 376 q 555 858 608 773 q 357 943 502 943 l 210 943 l 210 100 m 93 0 l 93 1044 l 389 1044 q 650 925 566 1044 q 735 556 735 806 q 706 266 735 380 q 615 84 677 151 q 520 19 573 38 q 363 0 467 0 l 93 0 "},"ÿ":{"x_min":24,"x_max":593,"ha":616,"o":"m 53 -249 l 53 -151 q 87 -161 70 -158 q 120 -165 104 -165 q 197 -132 169 -165 q 253 -6 225 -99 l 24 781 l 142 781 l 308 151 l 481 781 l 593 781 l 352 -34 q 265 -214 314 -167 q 125 -262 215 -262 q 92 -258 111 -262 q 53 -249 74 -255 m 367 889 l 367 1004 l 473 1004 l 473 889 l 367 889 m 144 889 l 144 1004 l 250 1004 l 250 889 l 144 889 "},"ł":{"x_min":0,"x_max":305,"ha":290,"o":"m 97 0 l 97 487 l 0 418 l 0 496 l 97 563 l 97 1044 l 206 1044 l 206 617 l 305 686 l 305 608 l 206 540 l 206 0 l 97 0 "},"Ł":{"x_min":0,"x_max":639,"ha":673,"o":"m 106 0 l 106 404 l 0 329 l 0 442 l 106 515 l 106 1044 l 223 1044 l 223 594 l 431 741 l 431 626 l 223 480 l 223 113 l 639 113 l 639 0 l 106 0 "},"$":{"x_min":52,"x_max":636,"ha":692,"o":"m 310 608 l 310 940 q 214 888 249 933 q 179 773 179 843 q 209 671 179 710 q 310 608 240 632 m 310 -135 l 310 -1 q 115 78 179 6 q 52 293 52 151 q 52 317 52 309 q 53 333 52 326 l 167 333 q 166 316 167 327 q 166 301 166 305 q 199 146 166 196 q 304 96 233 96 l 310 96 l 310 487 q 122 599 179 532 q 65 774 65 666 q 130 958 65 888 q 310 1034 196 1028 l 310 1128 l 370 1128 l 370 1035 q 547 959 487 1023 q 607 779 607 894 l 607 764 l 496 764 l 496 770 q 465 888 496 846 q 370 938 434 929 l 370 587 q 577 467 518 533 q 636 291 636 401 q 566 81 636 157 q 370 0 496 5 l 370 -135 l 310 -135 m 370 94 q 479 148 439 99 q 519 282 519 198 q 482 394 519 350 q 370 464 446 438 l 370 94 "},"w":{"x_min":29,"x_max":896,"ha":925,"o":"m 229 0 l 29 781 l 141 781 l 286 156 l 407 781 l 518 781 l 653 155 l 787 781 l 896 781 l 707 0 l 599 0 l 462 605 l 343 0 l 229 0 "},"\\":{"x_min":0,"x_max":447,"ha":386,"o":"m 372 -129 l 0 1069 l 75 1069 l 447 -129 l 372 -129 "},"∫":{"x_min":32,"x_max":690,"ha":724,"o":"m 210 -178 q 291 288 282 -178 q 294 400 293 361 q 366 900 302 749 q 567 1051 430 1051 q 656 1022 622 1051 q 690 949 690 993 q 668 891 690 912 q 609 870 646 870 q 561 882 580 870 q 534 919 542 895 q 527 954 530 929 q 513 979 524 979 q 431 559 440 979 q 426 353 428 428 q 350 -111 414 28 q 153 -252 286 -252 q 66 -223 100 -252 q 32 -151 32 -195 q 55 -92 32 -113 q 119 -71 78 -71 q 157 -80 141 -71 q 184 -109 174 -90 q 194 -149 191 -121 q 210 -178 197 -178 "},"Ì":{"x_min":-2,"x_max":234,"ha":306,"o":"m 93 0 l 93 1044 l 212 1044 l 212 0 l 93 0 m 234 1144 l 165 1144 l -2 1327 l 118 1327 l 234 1144 "},"Ç":{"x_min":72,"x_max":703,"ha":785,"o":"m 588 383 l 703 383 q 620 79 700 184 q 388 -25 540 -25 q 149 108 227 -25 q 72 519 72 241 q 148 939 72 809 q 397 1069 225 1069 q 618 986 540 1069 q 696 749 696 903 l 696 737 l 583 737 q 532 905 583 844 q 395 966 482 966 q 242 862 289 966 q 196 519 196 759 q 244 185 196 284 q 403 86 292 86 q 540 158 492 86 q 588 366 588 231 l 588 383 m 257 -231 l 267 -233 q 377 -248 353 -248 q 433 -233 414 -248 q 452 -190 452 -218 q 432 -146 452 -162 q 376 -131 412 -131 q 366 -131 371 -131 q 351 -133 361 -131 l 351 0 l 403 0 l 403 -68 l 407 -68 q 509 -99 472 -68 q 547 -186 547 -131 q 504 -285 547 -252 q 380 -319 462 -319 q 323 -314 354 -319 q 257 -300 292 -310 l 257 -231 "},"C":{"x_min":72,"x_max":703,"ha":785,"o":"m 588 383 l 703 383 q 620 79 700 184 q 388 -25 540 -25 q 149 108 227 -25 q 72 519 72 241 q 148 939 72 809 q 397 1069 225 1069 q 618 986 540 1069 q 696 749 696 903 l 696 737 l 583 737 q 532 905 583 844 q 395 966 482 966 q 242 862 289 966 q 196 519 196 759 q 244 185 196 284 q 403 86 292 86 q 540 158 492 86 q 588 366 588 231 l 588 383 "},"!":{"x_min":117,"x_max":243,"ha":359,"o":"m 123 0 l 123 143 l 238 143 l 238 0 l 123 0 m 146 257 l 117 747 l 117 1044 l 243 1044 l 243 747 l 214 257 l 146 257 "},"ç":{"x_min":64,"x_max":569,"ha":639,"o":"m 462 275 l 569 275 q 503 56 569 133 q 319 -21 438 -21 q 126 81 189 -21 q 64 396 64 183 q 129 701 64 600 q 326 802 194 802 q 499 735 436 802 q 563 553 563 668 l 563 537 l 457 537 q 421 661 453 618 q 331 704 389 704 q 216 633 250 704 q 182 392 182 562 q 216 148 182 220 q 332 77 251 77 q 426 127 393 77 q 462 275 459 178 m 193 -231 l 203 -233 q 313 -248 289 -248 q 369 -233 350 -248 q 388 -190 388 -218 q 368 -146 388 -162 q 312 -131 348 -131 q 302 -131 307 -131 q 287 -133 297 -131 l 287 0 l 339 0 l 339 -68 l 343 -68 q 445 -99 408 -68 q 483 -186 483 -131 q 440 -285 483 -252 q 316 -319 398 -319 q 259 -314 290 -319 q 193 -300 228 -310 l 193 -231 "},"È":{"x_min":93,"x_max":615,"ha":681,"o":"m 93 0 l 93 1044 l 610 1044 l 610 935 l 208 935 l 208 600 l 584 600 l 584 494 l 208 494 l 208 110 l 615 110 l 615 0 l 93 0 m 445 1144 l 376 1144 l 209 1327 l 329 1327 l 445 1144 "},"X":{"x_min":-17,"x_max":703,"ha":686,"o":"m -17 0 l 273 540 l -3 1044 l 139 1044 l 345 648 l 555 1044 l 689 1044 l 409 543 l 703 0 l 562 0 l 341 437 l 118 0 l -17 0 "},"ô":{"x_min":61,"x_max":610,"ha":671,"o":"m 61 389 q 128 701 61 600 q 335 803 196 803 q 543 702 476 803 q 610 389 610 602 q 543 78 610 177 q 335 -21 476 -21 q 126 77 192 -21 q 61 389 61 176 m 178 390 q 213 143 178 215 q 335 72 249 72 q 455 144 419 72 q 492 390 492 217 q 455 635 492 563 q 335 707 419 707 q 214 636 250 707 q 178 390 178 565 m 167 865 l 283 1048 l 397 1048 l 514 865 l 447 865 l 340 977 l 233 865 l 167 865 "},"đ":{"x_min":61,"x_max":689,"ha":673,"o":"m 477 0 l 477 98 q 417 15 464 47 q 308 -16 370 -16 q 124 94 188 -16 q 61 414 61 205 q 124 698 61 597 q 302 799 188 799 q 410 770 363 799 q 470 699 458 741 l 470 868 l 301 868 l 301 936 l 470 936 l 470 1044 l 580 1044 l 580 936 l 689 936 l 689 868 l 580 868 l 580 0 l 477 0 m 477 395 q 443 634 477 567 q 329 701 409 701 q 216 628 253 701 q 180 404 180 555 q 214 157 180 233 q 325 82 249 82 q 441 153 406 82 q 477 395 477 225 "},"}":{"x_min":108,"x_max":582,"ha":694,"o":"m 390 758 l 390 592 q 426 451 390 492 q 551 410 463 410 q 566 411 556 410 q 582 412 576 412 l 582 310 q 567 310 577 310 q 552 311 556 311 q 426 270 463 311 q 390 128 390 229 l 390 -36 q 374 -180 390 -137 q 322 -246 359 -223 q 252 -272 293 -264 q 137 -280 210 -280 l 108 -280 l 108 -178 l 134 -178 q 244 -147 215 -178 q 273 -23 273 -117 l 273 139 q 303 294 273 248 q 409 359 333 340 q 303 426 333 380 q 273 581 273 472 l 273 745 q 244 869 273 839 q 134 900 215 900 l 108 900 l 108 1002 l 133 1002 q 249 993 205 1002 q 322 966 292 985 q 374 901 359 943 q 390 758 390 858 "},"â":{"x_min":61,"x_max":590,"ha":619,"o":"m 417 421 q 303 361 391 392 q 292 357 296 358 q 193 297 216 330 q 171 198 171 263 q 196 107 171 139 q 269 76 222 76 q 376 127 336 76 q 417 266 417 179 l 417 421 m 590 -1 q 554 -6 569 -4 q 525 -8 538 -8 q 453 21 479 -8 q 424 103 426 50 q 352 11 399 43 q 239 -20 304 -20 q 108 37 155 -20 q 61 197 61 94 q 104 351 61 298 q 293 453 148 404 l 295 453 q 414 547 414 493 l 414 619 q 386 689 414 667 q 299 711 359 711 q 212 680 240 711 q 184 587 184 650 l 184 574 l 82 574 q 138 748 84 693 q 312 803 193 803 q 474 752 423 803 q 526 592 526 702 l 526 136 q 536 92 526 105 q 572 79 547 79 q 587 81 577 79 q 590 81 588 81 l 590 -1 m 148 865 l 264 1048 l 378 1048 l 495 865 l 428 865 l 321 977 l 214 865 l 148 865 "},"ø":{"x_min":19.65625,"x_max":643.234375,"ha":671,"o":"m 457 636 q 408 689 439 671 q 335 707 376 707 q 213 638 248 707 q 178 392 178 569 q 180 301 178 339 q 186 232 182 263 l 457 636 m 209 151 q 256 92 226 110 q 335 74 286 74 q 455 146 419 74 q 492 392 492 219 q 489 471 492 431 q 481 554 486 511 l 209 151 m 19 -16 l 107 114 q 72 235 84 167 q 61 384 61 303 q 127 700 61 598 q 335 803 194 803 q 443 785 398 803 q 521 730 487 767 l 590 833 l 643 797 l 559 672 q 597 553 585 624 q 610 382 610 481 q 542 78 610 177 q 335 -21 475 -21 q 226 -2 272 -21 q 144 54 180 15 l 71 -55 l 19 -16 "},"Ä":{"x_min":21,"x_max":743,"ha":764,"o":"m 241 407 l 519 407 l 380 953 l 241 407 m 21 0 l 305 1044 l 454 1044 l 743 0 l 625 0 l 545 301 l 214 301 l 138 0 l 21 0 m 441 1168 l 441 1283 l 547 1283 l 547 1168 l 441 1168 m 218 1168 l 218 1283 l 324 1283 l 324 1168 l 218 1168 "},"‰":{"x_min":64,"x_max":1352,"ha":1417,"o":"m 1161 427 q 1089 386 1110 427 q 1068 242 1068 345 q 1090 121 1068 159 q 1161 83 1112 83 q 1233 126 1210 83 q 1256 262 1256 169 q 1232 386 1256 345 q 1161 427 1209 427 m 972 259 q 1018 447 972 385 q 1158 510 1064 510 q 1304 448 1256 510 q 1352 259 1352 387 q 1302 66 1352 133 q 1160 0 1253 0 q 1017 63 1063 0 q 972 259 972 126 m 714 427 q 642 386 663 427 q 621 242 621 345 q 643 121 621 159 q 714 83 666 83 q 786 126 763 83 q 809 262 809 169 q 785 386 809 345 q 714 427 762 427 m 525 259 q 571 447 525 385 q 712 510 618 510 q 857 448 810 510 q 905 259 905 387 q 856 66 905 133 q 715 0 807 0 q 571 63 617 0 q 525 259 525 126 m 252 949 q 180 908 201 949 q 160 764 160 868 q 181 643 160 681 q 252 605 203 605 q 325 648 302 605 q 348 784 348 691 q 324 908 348 867 q 252 949 300 949 m 64 781 q 110 969 64 907 q 251 1032 157 1032 q 396 970 349 1032 q 444 783 444 909 q 394 589 444 656 q 252 522 345 522 q 110 585 156 522 q 64 781 64 648 m 206 -19 l 678 1050 l 756 1050 l 287 -19 l 206 -19 "},"N":{"x_min":93,"x_max":713,"ha":806,"o":"m 93 0 l 93 1044 l 249 1044 l 610 148 l 600 1044 l 713 1044 l 713 0 l 563 0 l 196 921 l 206 0 l 93 0 "},"—":{"x_min":0,"x_max":1389,"ha":1389,"o":"m 0 340 l 0 440 l 1389 440 l 1389 340 l 0 340 "},"2":{"x_min":66,"x_max":623,"ha":692,"o":"m 68 0 q 66 15 66 7 q 66 40 66 23 q 110 232 66 142 q 248 405 155 322 q 299 451 266 421 q 439 584 404 544 q 480 660 467 618 q 493 762 493 703 q 453 900 493 852 q 339 949 413 949 q 227 895 264 949 q 189 733 189 841 q 190 722 189 733 q 191 699 191 710 l 78 699 q 77 717 78 705 q 76 736 76 730 q 146 970 76 888 q 345 1053 216 1053 q 542 978 471 1053 q 614 768 614 903 q 600 648 614 700 q 555 551 586 596 q 420 418 525 504 q 380 385 393 397 q 230 233 274 297 q 185 107 186 170 l 623 107 l 623 0 l 68 0 "},"ü":{"x_min":81,"x_max":564,"ha":653,"o":"m 462 0 l 462 102 q 389 10 439 42 q 268 -21 338 -21 q 125 27 170 -21 q 81 180 81 75 l 81 781 l 195 781 l 195 178 q 219 103 195 129 q 286 77 243 77 q 408 125 364 77 q 453 262 453 174 l 453 781 l 564 781 l 564 0 l 462 0 m 381 889 l 381 1004 l 487 1004 l 487 889 l 381 889 m 158 889 l 158 1004 l 264 1004 l 264 889 l 158 889 "},"":{"x_min":1.359375,"x_max":548,"ha":625,"o":"m 113 0 l 113 691 l 1 691 l 1 781 l 113 781 l 113 886 q 157 1010 113 971 q 298 1050 202 1050 q 322 1048 311 1050 q 343 1044 333 1047 l 342 947 q 318 951 328 950 q 299 953 308 953 q 241 936 257 953 q 226 875 226 919 l 226 781 l 343 781 l 343 691 l 226 691 l 226 0 l 113 0 m 435 0 l 435 1044 l 548 1044 l 548 0 l 435 0 "},"Ó":{"x_min":72,"x_max":741,"ha":814,"o":"m 193 522 q 240 174 193 270 q 406 78 288 78 q 572 171 525 78 q 620 522 620 265 q 572 871 620 777 q 406 965 525 965 q 240 869 288 965 q 193 522 193 773 m 72 522 q 150 941 72 813 q 406 1069 229 1069 q 662 942 584 1069 q 741 522 741 816 q 663 101 741 227 q 406 -25 585 -25 q 151 103 230 -25 q 72 522 72 232 m 325 1143 l 440 1327 l 561 1327 l 393 1143 l 325 1143 "},"˜":{"x_min":179,"x_max":514,"ha":694,"o":"m 514 1030 q 475 927 504 962 q 401 893 446 893 q 382 894 391 893 q 361 900 372 896 l 302 921 q 294 923 299 922 q 279 923 289 923 q 250 911 263 923 q 230 879 237 900 l 179 879 q 223 978 193 944 q 298 1011 253 1011 q 312 1010 306 1011 q 326 1007 319 1009 l 398 985 q 401 984 399 985 q 417 982 412 982 q 447 994 436 982 q 463 1030 459 1006 l 514 1030 "},"ˇ":{"x_min":174,"x_max":521,"ha":694,"o":"m 174 1048 l 240 1048 l 347 935 l 454 1048 l 521 1048 l 404 865 l 290 865 l 174 1048 "},"Ÿ":{"x_min":-21,"x_max":717,"ha":697,"o":"m 288 0 l 288 404 l -21 1044 l 118 1044 l 349 530 l 590 1044 l 717 1044 l 406 404 l 406 0 l 288 0 m 407 1168 l 407 1283 l 513 1283 l 513 1168 l 407 1168 m 184 1168 l 184 1283 l 290 1283 l 290 1168 l 184 1168 "},"€":{"x_min":22,"x_max":664,"ha":692,"o":"m 500 475 l 483 409 l 241 409 q 282 152 245 223 q 407 81 320 81 q 511 138 476 81 q 550 320 546 195 l 664 320 q 589 59 653 140 q 396 -21 525 -21 q 193 78 258 -21 q 119 409 128 178 l 22 409 l 38 475 l 118 475 q 118 546 118 522 q 119 590 118 569 l 27 590 l 44 657 l 122 657 q 200 961 134 872 q 409 1050 265 1050 q 588 982 528 1050 q 657 768 648 914 l 544 768 q 503 904 537 859 q 408 949 470 949 q 286 885 323 949 q 241 657 248 821 l 545 657 l 528 590 l 239 590 q 238 561 239 580 q 237 533 237 541 q 238 504 237 523 q 239 475 239 485 l 500 475 "},"ß":{"x_min":82,"x_max":600,"ha":668,"o":"m 82 0 l 82 730 q 141 971 82 893 q 324 1050 201 1050 q 500 985 439 1050 q 561 797 561 920 q 537 673 561 723 q 464 594 513 623 q 566 495 533 565 q 600 307 600 425 q 546 61 600 142 q 383 -20 492 -20 q 331 -13 354 -20 q 290 8 308 -6 l 290 110 q 331 86 310 94 q 375 79 352 79 q 460 130 434 79 q 486 304 486 182 q 451 488 486 434 q 336 542 416 542 q 317 541 323 542 q 304 540 310 541 l 304 633 q 313 632 308 632 q 327 632 318 632 q 423 669 391 632 q 455 781 455 706 q 423 915 455 873 q 321 958 391 958 q 219 912 252 958 q 187 773 187 867 l 187 0 l 82 0 "},"s":{"x_min":62,"x_max":554,"ha":616,"o":"m 62 235 l 170 235 q 170 230 170 233 q 168 208 168 215 q 204 111 168 144 q 309 78 240 78 q 408 111 372 78 q 445 204 445 145 q 303 345 445 296 l 301 346 q 117 444 159 395 q 75 585 75 493 q 135 745 75 688 q 302 803 195 803 q 474 748 416 803 q 532 585 532 693 l 532 575 l 428 575 q 396 677 424 645 q 307 710 367 710 q 211 679 243 710 q 179 589 179 649 q 187 542 179 563 q 212 508 195 521 q 330 454 242 482 q 404 429 378 439 q 519 350 484 398 q 554 223 554 302 q 486 42 554 106 q 294 -21 418 -21 q 120 39 179 -21 q 62 218 62 100 l 62 235 "},"?":{"x_min":104,"x_max":623,"ha":690,"o":"m 291 263 q 289 286 290 274 q 289 315 289 298 q 309 440 289 386 q 400 578 329 494 q 410 591 403 582 q 500 802 500 696 q 463 922 500 878 q 363 967 426 967 q 253 914 291 967 q 216 760 216 861 l 216 740 l 104 740 l 104 757 q 170 988 104 908 q 362 1069 236 1069 q 552 996 482 1069 q 623 799 623 923 q 500 530 623 673 l 498 528 l 497 527 q 396 304 396 408 q 396 279 396 289 q 397 262 397 270 l 291 263 m 285 0 l 285 143 l 400 143 l 400 0 l 285 0 "},"c":{"x_min":64,"x_max":569,"ha":639,"o":"m 462 275 l 569 275 q 503 56 569 133 q 319 -21 438 -21 q 126 81 189 -21 q 64 396 64 183 q 129 701 64 600 q 326 802 194 802 q 499 735 436 802 q 563 553 563 668 l 563 537 l 457 537 q 421 661 453 618 q 331 704 389 704 q 216 633 250 704 q 182 392 182 562 q 216 148 182 220 q 332 77 251 77 q 426 127 393 77 q 462 275 459 178 "},"¶":{"x_min":45,"x_max":651,"ha":694,"o":"m 651 945 l 570 945 l 570 0 l 493 0 l 493 945 l 374 945 l 374 0 l 297 0 l 297 530 q 113 599 181 535 q 45 766 45 663 q 117 937 45 872 q 311 1003 190 1003 l 651 1003 l 651 945 "},"•":{"x_min":208,"x_max":609,"ha":819,"o":"m 208 516 q 266 657 208 599 q 409 716 325 716 q 550 657 491 716 q 609 516 609 598 q 549 374 609 433 q 407 315 490 315 q 266 373 324 315 q 208 516 208 432 "},"(":{"x_min":126,"x_max":420,"ha":443,"o":"m 340 -305 q 177 41 228 -119 q 126 374 126 203 q 179 721 126 555 q 340 1044 232 887 l 420 1044 q 288 746 329 903 q 247 378 247 588 q 261 132 247 236 q 309 -60 276 27 q 358 -178 330 -117 q 420 -305 385 -239 l 340 -305 "},"◊":{"x_min":4,"x_max":682,"ha":686,"o":"m 343 956 l 81 402 l 343 -157 l 604 402 l 343 956 m 343 1122 l 682 402 l 343 -323 l 4 402 l 343 1122 "},"­":{"x_min":61,"x_max":396,"ha":458,"o":"m 61 329 l 61 452 l 396 452 l 396 329 l 61 329 "},":":{"x_min":111,"x_max":234,"ha":347,"o":"m 111 628 l 111 771 l 234 771 l 234 628 l 111 628 m 111 0 l 111 143 l 234 143 l 234 0 l 111 0 "},"Û":{"x_min":94,"x_max":706,"ha":800,"o":"m 94 1044 l 211 1044 l 211 341 q 252 137 211 194 q 394 80 294 80 q 543 143 495 80 q 592 341 592 206 l 592 1044 l 706 1044 l 706 362 q 691 175 706 230 q 640 78 676 121 q 535 2 598 28 q 392 -24 472 -24 q 245 4 310 -24 q 142 84 180 32 q 105 174 116 119 q 94 362 94 230 l 94 1044 m 227 1144 l 343 1327 l 457 1327 l 574 1144 l 507 1144 l 400 1256 l 293 1144 l 227 1144 "},"V":{"x_min":4,"x_max":724,"ha":729,"o":"m 296 0 l 4 1044 l 130 1044 l 365 144 l 607 1044 l 724 1044 l 436 0 l 296 0 "}," ":{"x_min":0,"x_max":0,"ha":692},"@":{"x_min":72,"x_max":1318,"ha":1389,"o":"m 870 579 l 909 657 l 998 657 l 899 265 q 895 244 897 254 q 894 225 894 234 q 911 178 894 194 q 962 161 929 161 q 1031 179 994 161 q 1103 231 1068 197 q 1188 357 1158 282 q 1219 516 1219 432 q 1089 801 1219 692 q 751 911 960 911 q 584 892 661 911 q 441 833 508 873 q 241 630 312 756 q 170 352 170 504 q 211 143 170 232 q 342 -12 253 54 q 502 -92 409 -64 q 697 -121 594 -121 q 919 -87 811 -121 q 1118 7 1027 -54 l 1155 -47 q 942 -161 1054 -123 q 705 -199 829 -199 q 469 -167 576 -199 q 279 -72 362 -135 q 123 113 175 7 q 72 353 72 219 q 107 566 72 465 q 209 748 142 666 q 447 931 308 869 q 756 994 587 994 q 966 963 867 994 q 1138 877 1066 932 q 1272 720 1226 809 q 1318 528 1318 631 q 1274 314 1318 409 q 1149 154 1231 219 q 1048 98 1103 118 q 935 78 993 78 q 834 105 868 78 q 800 184 800 132 l 800 197 q 712 108 762 137 q 596 80 662 80 q 437 137 492 80 q 383 305 383 195 q 476 573 383 465 q 706 681 570 681 q 805 655 764 681 q 870 579 846 630 m 807 321 l 847 481 q 800 574 835 541 q 712 607 765 607 q 555 518 619 607 q 492 301 492 430 q 524 191 492 230 q 618 153 557 153 q 736 199 683 153 q 807 321 788 246 "},"¾":{"x_min":35,"x_max":1064,"ha":1103,"o":"m 755 206 l 933 206 l 941 503 l 755 206 m 933 0 l 933 150 l 696 150 l 696 206 l 938 587 l 1003 587 l 1003 206 l 1064 206 l 1064 150 l 1003 150 l 1003 0 l 933 0 m 289 -21 l 204 -21 l 813 1051 l 898 1051 l 289 -21 m 35 626 l 108 626 l 108 617 q 133 527 108 557 q 209 497 158 497 q 291 527 263 497 q 319 616 319 557 q 287 702 319 674 q 187 730 255 730 l 164 730 l 164 784 l 179 784 q 270 808 242 784 q 299 887 299 832 q 274 958 299 933 q 205 984 250 984 q 139 956 161 984 q 118 875 118 929 l 118 866 l 47 866 l 47 875 q 89 996 47 952 q 207 1040 132 1040 q 328 1000 284 1040 q 373 894 373 961 q 347 804 373 840 q 279 761 322 769 q 365 716 337 752 q 394 618 394 681 q 345 487 394 534 q 208 441 296 441 q 79 487 123 441 q 35 621 35 533 l 35 626 "},"i":{"x_min":82,"x_max":195,"ha":277,"o":"m 82 903 l 82 1044 l 195 1044 l 195 903 l 82 903 m 82 0 l 82 781 l 195 781 l 195 0 l 82 0 "},"≤":{"x_min":178,"x_max":981.359375,"ha":1157,"o":"m 981 110 l 981 16 l 178 16 l 178 110 l 981 110 m 980 718 l 344 508 l 980 301 l 980 200 l 178 467 l 178 550 l 980 818 l 980 718 "},"m":{"x_min":83,"x_max":956,"ha":1036,"o":"m 83 0 l 83 781 l 183 781 l 183 686 q 267 770 215 741 q 389 799 319 799 q 498 769 455 799 q 557 684 541 740 q 642 770 592 741 q 760 799 692 799 q 905 749 855 799 q 956 606 956 699 l 956 0 l 843 0 l 843 538 q 818 667 843 633 q 733 701 794 701 q 619 656 663 701 q 576 543 576 612 l 576 0 l 463 0 l 463 543 q 436 665 463 629 q 350 701 410 701 q 234 658 279 701 q 190 548 190 615 l 190 0 l 83 0 "},"ž":{"x_min":32,"x_max":504,"ha":538,"o":"m 32 0 l 32 99 l 366 683 l 46 683 l 46 781 l 497 781 l 497 693 l 155 104 l 504 104 l 504 0 l 32 0 m 96 1048 l 162 1048 l 269 935 l 376 1048 l 443 1048 l 326 865 l 212 865 l 96 1048 "},"á":{"x_min":61,"x_max":590,"ha":619,"o":"m 417 421 q 303 361 391 392 q 292 357 296 358 q 193 297 216 330 q 171 198 171 263 q 196 107 171 139 q 269 76 222 76 q 376 127 336 76 q 417 266 417 179 l 417 421 m 590 -1 q 554 -6 569 -4 q 525 -8 538 -8 q 453 21 479 -8 q 424 103 426 50 q 352 11 399 43 q 239 -20 304 -20 q 108 37 155 -20 q 61 197 61 94 q 104 351 61 298 q 293 453 148 404 l 295 453 q 414 547 414 493 l 414 619 q 386 689 414 667 q 299 711 359 711 q 212 680 240 711 q 184 587 184 650 l 184 574 l 82 574 q 138 748 84 693 q 312 803 193 803 q 474 752 423 803 q 526 592 526 702 l 526 136 q 536 92 526 105 q 572 79 547 79 q 587 81 577 79 q 590 81 588 81 l 590 -1 m 239 864 l 354 1048 l 475 1048 l 307 864 l 239 864 "},"×":{"x_min":199,"x_max":968,"ha":1157,"o":"m 583 481 l 901 799 l 968 731 l 649 413 l 968 96 l 901 31 l 583 347 l 265 31 l 199 96 l 517 413 l 199 731 l 265 799 l 583 481 "},"İ":{"x_min":87,"x_max":218,"ha":306,"o":"m 93 0 l 93 1044 l 212 1044 l 212 0 l 93 0 m 87 1180 l 87 1329 l 218 1329 l 218 1180 l 87 1180 "},"K":{"x_min":93,"x_max":745,"ha":753,"o":"m 93 0 l 93 1044 l 208 1044 l 208 541 l 585 1044 l 721 1044 l 395 622 l 745 0 l 602 0 l 317 520 l 208 377 l 208 0 l 93 0 "},"7":{"x_min":62,"x_max":629,"ha":692,"o":"m 162 0 q 285 493 194 264 q 528 918 377 722 l 62 918 l 62 1032 l 629 1032 l 629 931 q 393 494 478 731 q 292 0 308 258 l 162 0 "},"¨":{"x_min":183,"x_max":512,"ha":694,"o":"m 406 889 l 406 1004 l 512 1004 l 512 889 l 406 889 m 183 889 l 183 1004 l 289 1004 l 289 889 l 183 889 "},"Y":{"x_min":-21,"x_max":717,"ha":697,"o":"m 288 0 l 288 404 l -21 1044 l 118 1044 l 349 530 l 590 1044 l 717 1044 l 406 404 l 406 0 l 288 0 "},"E":{"x_min":93,"x_max":615,"ha":681,"o":"m 93 0 l 93 1044 l 610 1044 l 610 935 l 208 935 l 208 600 l 584 600 l 584 494 l 208 494 l 208 110 l 615 110 l 615 0 l 93 0 "},"Ô":{"x_min":72,"x_max":741,"ha":814,"o":"m 193 522 q 240 174 193 270 q 406 78 288 78 q 572 171 525 78 q 620 522 620 265 q 572 871 620 777 q 406 965 525 965 q 240 869 288 965 q 193 522 193 773 m 72 522 q 150 941 72 813 q 406 1069 229 1069 q 662 942 584 1069 q 741 522 741 816 q 663 101 741 227 q 406 -25 585 -25 q 151 103 230 -25 q 72 522 72 232 m 234 1144 l 350 1327 l 464 1327 l 581 1144 l 514 1144 l 407 1256 l 300 1144 l 234 1144 "},"Ï":{"x_min":-12,"x_max":317,"ha":306,"o":"m 93 0 l 93 1044 l 212 1044 l 212 0 l 93 0 m 211 1168 l 211 1283 l 317 1283 l 317 1168 l 211 1168 m -12 1168 l -12 1283 l 94 1283 l 94 1168 l -12 1168 "},"‹":{"x_min":89,"x_max":294,"ha":383,"o":"m 294 126 l 89 342 l 89 441 l 294 654 l 294 527 l 161 391 l 294 252 l 294 126 "},"±":{"x_min":172,"x_max":984,"ha":1157,"o":"m 984 116 l 984 20 l 172 20 l 172 116 l 984 116 m 626 809 l 626 578 l 984 578 l 984 484 l 626 484 l 626 253 l 530 253 l 530 484 l 172 484 l 172 578 l 530 578 l 530 809 l 626 809 "},"ì":{"x_min":-15,"x_max":221,"ha":277,"o":"m 82 0 l 82 781 l 195 781 l 195 0 l 82 0 m 221 865 l 152 865 l -15 1048 l 105 1048 l 221 865 "},"|":{"x_min":297,"x_max":399,"ha":694,"o":"m 399 1061 l 399 -328 l 297 -328 l 297 1061 l 399 1061 "},"§":{"x_min":85,"x_max":610,"ha":694,"o":"m 436 283 q 492 338 474 306 q 510 414 510 370 q 329 612 510 501 q 256 658 282 641 q 201 604 219 635 q 183 531 183 573 q 198 462 183 492 q 244 409 213 431 q 320 359 255 401 q 436 283 385 317 m 117 98 l 226 98 l 226 81 q 252 -11 226 16 q 338 -40 278 -40 q 422 -11 394 -40 q 451 71 451 16 q 322 224 451 151 q 251 266 277 249 q 117 379 149 329 q 85 500 85 428 q 112 624 85 575 q 197 702 140 674 q 147 767 163 731 q 132 851 132 803 q 187 1013 132 958 q 349 1069 243 1069 q 505 1014 452 1069 q 558 856 558 960 l 558 837 l 452 837 l 452 843 q 427 941 452 911 q 349 972 403 972 q 267 944 294 972 q 241 860 241 917 q 363 723 241 788 q 433 684 408 699 q 575 568 540 620 q 610 439 610 517 q 583 318 610 365 q 495 235 557 270 q 546 171 529 210 q 563 83 563 133 q 506 -81 563 -24 q 342 -138 449 -138 q 172 -86 228 -138 q 116 68 116 -34 q 116 87 116 81 q 117 98 116 93 "},"q":{"x_min":60,"x_max":578,"ha":661,"o":"m 471 393 q 436 630 471 559 q 320 701 401 701 q 211 628 245 701 q 178 394 178 556 q 210 153 178 227 q 316 79 243 79 q 433 155 395 79 q 471 393 471 232 m 578 -264 l 465 -264 l 465 83 q 396 9 439 35 q 297 -17 352 -17 q 117 82 175 -17 q 60 392 60 181 q 121 696 60 594 q 307 799 183 799 q 412 766 366 799 q 471 682 459 733 l 471 781 l 578 781 l 578 -264 "},"b":{"x_min":85,"x_max":603,"ha":665,"o":"m 187 395 q 222 154 187 226 q 339 82 258 82 q 449 157 415 82 q 484 404 484 233 q 447 628 484 556 q 335 701 411 701 q 221 633 255 701 q 187 395 187 565 m 85 0 l 85 1044 l 194 1044 l 194 699 q 254 771 208 743 q 363 799 301 799 q 540 698 477 799 q 603 414 603 598 q 540 93 603 203 q 357 -16 477 -16 q 248 15 295 -16 q 187 98 201 46 l 187 0 l 85 0 "},"®":{"x_min":79,"x_max":1079,"ha":1157,"o":"m 571 717 l 484 717 l 484 529 l 574 529 q 684 550 651 529 q 718 619 718 571 q 683 693 718 670 q 571 717 648 717 m 590 786 q 768 746 709 786 q 828 630 828 707 q 794 530 828 570 q 698 478 760 490 l 825 220 l 705 220 l 589 461 l 484 461 l 484 220 l 377 220 l 377 786 l 590 786 m 1014 488 q 982 658 1014 579 q 890 798 950 737 q 748 894 827 861 q 579 927 669 927 q 413 895 491 927 q 276 803 335 863 q 178 658 212 739 q 144 492 144 577 q 176 329 144 407 q 271 188 209 250 q 412 92 332 126 q 575 59 491 59 q 743 91 663 59 q 887 186 822 124 q 981 323 948 246 q 1014 488 1014 401 m 577 993 q 771 955 680 993 q 934 844 863 917 q 1041 682 1004 773 q 1079 493 1079 592 q 1041 300 1079 390 q 933 141 1004 210 q 767 31 859 69 q 577 -7 675 -7 q 387 31 477 -7 q 224 142 296 69 q 116 304 153 214 q 79 493 79 394 q 118 684 79 592 q 230 851 157 777 q 387 957 298 921 q 577 993 475 993 "},"L":{"x_min":93,"x_max":627,"ha":661,"o":"m 93 0 l 93 1044 l 210 1044 l 210 113 l 627 113 l 627 0 l 93 0 "}," ":{"x_min":0,"x_max":0,"ha":346},"∑":{"x_min":17,"x_max":908,"ha":936,"o":"m 37 999 l 890 999 l 890 868 l 240 868 l 695 381 l 225 -137 l 908 -137 l 908 -267 l 17 -267 l 17 -165 l 508 377 l 37 878 l 37 999 "},"À":{"x_min":21,"x_max":743,"ha":764,"o":"m 241 407 l 519 407 l 380 953 l 241 407 m 21 0 l 305 1044 l 454 1044 l 743 0 l 625 0 l 545 301 l 214 301 l 138 0 l 21 0 m 464 1144 l 395 1144 l 228 1327 l 348 1327 l 464 1144 "},"+":{"x_min":172,"x_max":984,"ha":1157,"o":"m 626 828 l 626 461 l 984 461 l 984 367 l 626 367 l 626 0 l 530 0 l 530 367 l 172 367 l 172 461 l 530 461 l 530 828 l 626 828 "},"½":{"x_min":65,"x_max":1061,"ha":1104,"o":"m 711 0 q 710 8 710 4 q 710 22 710 13 q 738 130 710 80 q 825 228 766 180 q 866 260 839 239 q 945 327 926 307 q 970 370 962 346 q 979 427 979 394 q 954 504 979 477 q 881 531 929 531 q 811 501 834 531 q 788 411 788 471 l 788 392 l 717 392 l 717 412 q 760 543 717 497 q 886 589 804 589 q 1010 547 965 589 q 1055 430 1055 505 q 1046 363 1055 392 q 1019 308 1038 333 q 939 238 1001 284 q 908 217 919 224 q 813 130 840 165 q 785 60 786 95 l 1061 60 l 1061 0 l 711 0 m 288 -21 l 204 -21 l 814 1051 l 898 1051 l 288 -21 m 205 453 l 205 884 l 65 884 l 65 934 l 73 934 q 179 960 144 934 q 217 1042 214 987 l 276 1042 l 276 453 l 205 453 "},"Ë":{"x_min":93,"x_max":615,"ha":681,"o":"m 93 0 l 93 1044 l 610 1044 l 610 935 l 208 935 l 208 600 l 584 600 l 584 494 l 208 494 l 208 110 l 615 110 l 615 0 l 93 0 m 422 1168 l 422 1283 l 528 1283 l 528 1168 l 422 1168 m 199 1168 l 199 1283 l 305 1283 l 305 1168 l 199 1168 "},"'":{"x_min":61,"x_max":155,"ha":215,"o":"m 155 974 l 155 598 l 61 598 l 61 974 l 155 974 "},"Š":{"x_min":69,"x_max":675,"ha":745,"o":"m 70 331 l 182 331 l 182 293 q 231 133 182 187 q 376 79 280 79 q 512 131 463 79 q 562 274 562 183 q 531 387 562 348 q 395 467 501 427 q 325 493 370 476 q 172 563 198 540 q 107 654 128 601 q 86 778 86 708 q 161 992 86 915 q 370 1069 236 1069 q 570 997 498 1069 q 643 801 643 926 q 642 788 643 797 q 641 775 641 779 l 534 775 l 534 785 q 491 921 534 873 q 369 969 448 969 q 241 923 288 969 q 195 799 195 877 q 226 685 195 725 q 365 605 258 644 q 403 591 378 600 q 598 500 567 530 q 656 413 637 464 q 675 289 675 361 q 592 58 675 141 q 364 -24 510 -24 q 143 57 218 -24 q 69 296 69 138 q 69 313 69 301 q 70 331 70 325 m 199 1327 l 265 1327 l 372 1214 l 479 1327 l 546 1327 l 429 1144 l 315 1144 l 199 1327 "},"˛":{"x_min":216,"x_max":417,"ha":694,"o":"m 398 0 q 328 -79 350 -42 q 306 -150 306 -115 q 320 -191 306 -179 q 370 -203 334 -203 l 417 -203 l 417 -300 l 369 -300 q 254 -271 292 -300 q 216 -185 216 -242 q 245 -97 216 -141 q 343 0 275 -53 l 398 0 "},"ð":{"x_min":61,"x_max":608,"ha":671,"o":"m 401 734 q 355 788 383 760 q 284 848 327 815 l 120 756 l 90 812 l 229 891 q 184 919 211 903 q 115 957 156 935 l 143 1044 q 233 996 188 1021 q 323 941 278 970 l 506 1044 l 542 988 l 378 895 q 553 677 498 802 q 608 369 608 553 q 542 72 608 166 q 334 -21 476 -21 q 127 72 193 -21 q 61 369 61 166 q 125 659 61 561 q 313 758 189 758 q 359 752 338 758 q 401 734 380 746 m 178 373 q 213 141 178 208 q 334 74 249 74 q 454 143 417 74 q 491 373 491 212 q 455 603 491 536 q 334 671 419 671 q 214 604 250 671 q 178 373 178 538 "},"ş":{"x_min":62,"x_max":554,"ha":616,"o":"m 62 235 l 170 235 q 170 230 170 233 q 168 208 168 215 q 204 111 168 144 q 309 78 240 78 q 408 111 372 78 q 445 204 445 145 q 303 345 445 296 l 301 346 q 117 444 159 395 q 75 585 75 493 q 135 745 75 688 q 302 803 195 803 q 474 748 416 803 q 532 585 532 693 l 532 575 l 428 575 q 396 677 424 645 q 307 710 367 710 q 211 679 243 710 q 179 589 179 649 q 187 542 179 563 q 212 508 195 521 q 330 454 242 482 q 404 429 378 439 q 519 350 484 398 q 554 223 554 302 q 486 42 554 106 q 294 -21 418 -21 q 120 39 179 -21 q 62 218 62 100 l 62 235 m 185 -231 l 195 -233 q 305 -248 281 -248 q 361 -233 342 -248 q 380 -190 380 -218 q 360 -146 380 -162 q 304 -131 340 -131 q 294 -131 299 -131 q 279 -133 289 -131 l 279 0 l 331 0 l 331 -68 l 335 -68 q 437 -99 400 -68 q 475 -186 475 -131 q 432 -285 475 -252 q 308 -319 390 -319 q 251 -314 282 -319 q 185 -300 220 -310 l 185 -231 "},"ı":{"x_min":82,"x_max":195,"ha":277,"o":"m 82 0 l 82 781 l 195 781 l 195 0 l 82 0 "},"Ć":{"x_min":72,"x_max":703,"ha":785,"o":"m 588 383 l 703 383 q 620 79 700 184 q 388 -25 540 -25 q 149 108 227 -25 q 72 519 72 241 q 148 939 72 809 q 397 1069 225 1069 q 618 986 540 1069 q 696 749 696 903 l 696 737 l 583 737 q 532 905 583 844 q 395 966 482 966 q 242 862 289 966 q 196 519 196 759 q 244 185 196 284 q 403 86 292 86 q 540 158 492 86 q 588 366 588 231 l 588 383 m 327 1143 l 442 1327 l 563 1327 l 395 1143 l 327 1143 "},"ä":{"x_min":61,"x_max":590,"ha":619,"o":"m 417 421 q 303 361 391 392 q 292 357 296 358 q 193 297 216 330 q 171 198 171 263 q 196 107 171 139 q 269 76 222 76 q 376 127 336 76 q 417 266 417 179 l 417 421 m 590 -1 q 554 -6 569 -4 q 525 -8 538 -8 q 453 21 479 -8 q 424 103 426 50 q 352 11 399 43 q 239 -20 304 -20 q 108 37 155 -20 q 61 197 61 94 q 104 351 61 298 q 293 453 148 404 l 295 453 q 414 547 414 493 l 414 619 q 386 689 414 667 q 299 711 359 711 q 212 680 240 711 q 184 587 184 650 l 184 574 l 82 574 q 138 748 84 693 q 312 803 193 803 q 474 752 423 803 q 526 592 526 702 l 526 136 q 536 92 526 105 q 572 79 547 79 q 587 81 577 79 q 590 81 588 81 l 590 -1 m 380 889 l 380 1004 l 486 1004 l 486 889 l 380 889 m 157 889 l 157 1004 l 263 1004 l 263 889 l 157 889 "},"¹":{"x_min":69,"x_max":290,"ha":457,"o":"m 215 411 l 215 872 l 69 872 l 69 925 l 77 925 q 188 953 151 925 q 229 1042 225 982 l 290 1042 l 290 411 l 215 411 "},"£":{"x_min":40,"x_max":671,"ha":692,"o":"m 100 -25 l 40 65 q 160 187 117 113 q 204 341 204 260 q 196 408 204 376 q 172 473 188 441 l 40 473 l 40 536 l 142 536 q 89 640 107 584 q 71 756 71 696 q 150 970 71 890 q 359 1051 229 1051 q 569 974 496 1051 q 642 754 642 897 l 642 732 l 531 732 l 531 744 q 486 896 531 843 q 358 950 441 950 q 237 900 280 950 q 194 760 194 850 q 212 642 194 700 q 266 536 231 585 l 487 536 l 487 473 l 293 473 q 311 406 306 429 q 317 367 317 383 q 275 225 317 298 q 154 84 233 152 q 235 120 195 108 q 313 132 275 132 q 421 114 353 132 q 519 97 488 97 q 578 106 551 97 q 633 139 605 116 l 671 44 q 590 -1 634 14 q 502 -17 546 -17 q 384 9 464 -17 q 257 36 304 36 q 174 20 214 36 q 100 -25 134 5 "},"W":{"x_min":17,"x_max":1080,"ha":1099,"o":"m 237 0 l 17 1044 l 137 1044 l 300 161 l 486 1044 l 619 1044 l 800 168 l 966 1044 l 1080 1044 l 860 0 l 735 0 l 551 852 l 365 0 l 237 0 "},"Ğ":{"x_min":72,"x_max":737,"ha":823,"o":"m 646 0 l 639 144 q 549 18 611 62 q 399 -25 487 -25 q 151 109 231 -25 q 72 528 72 243 q 155 940 72 812 q 423 1069 239 1069 q 645 984 565 1069 q 726 746 724 899 l 611 746 q 557 910 607 852 q 417 969 507 969 q 244 862 296 969 q 193 495 193 756 q 247 185 193 286 q 415 85 302 85 q 572 163 518 85 q 626 392 626 242 q 625 420 626 410 q 624 439 625 430 l 388 439 l 388 545 l 737 545 l 737 0 l 646 0 m 240 1322 l 304 1322 q 336 1259 310 1278 q 412 1240 361 1240 q 487 1259 462 1240 q 519 1322 512 1279 l 583 1322 q 533 1189 574 1231 q 412 1148 492 1148 q 289 1189 331 1148 q 240 1322 248 1231 "},"v":{"x_min":22,"x_max":568,"ha":591,"o":"m 233 0 l 22 781 l 141 781 l 294 168 l 454 781 l 568 781 l 351 0 l 233 0 "},">":{"x_min":179,"x_max":978,"ha":1157,"o":"m 978 458 l 978 371 l 179 43 l 179 147 l 837 413 l 179 682 l 179 786 l 978 458 "},"û":{"x_min":81,"x_max":564,"ha":653,"o":"m 462 0 l 462 102 q 389 10 439 42 q 268 -21 338 -21 q 125 27 170 -21 q 81 180 81 75 l 81 781 l 195 781 l 195 178 q 219 103 195 129 q 286 77 243 77 q 408 125 364 77 q 453 262 453 174 l 453 781 l 564 781 l 564 0 l 462 0 m 149 865 l 265 1048 l 379 1048 l 496 865 l 429 865 l 322 977 l 215 865 l 149 865 "},"Ð":{"x_min":0,"x_max":748,"ha":821,"o":"m 223 100 l 374 100 q 487 114 446 100 q 550 163 527 129 q 604 296 588 216 q 620 520 620 376 q 567 858 620 773 q 370 943 514 943 l 223 943 l 223 611 l 429 611 l 429 511 l 223 511 l 223 100 m 106 0 l 106 511 l 0 511 l 0 611 l 106 611 l 106 1044 l 402 1044 q 663 925 579 1044 q 748 556 748 806 q 718 266 748 380 q 628 84 689 151 q 533 19 586 38 q 375 0 480 0 l 106 0 "},"r":{"x_min":83,"x_max":412,"ha":404,"o":"m 83 0 l 83 781 l 184 781 l 184 653 q 255 760 208 721 q 365 799 303 799 q 393 798 383 799 q 412 796 403 797 l 412 679 q 392 686 403 684 q 369 689 382 689 q 238 633 285 689 q 192 478 192 577 l 192 0 l 83 0 "},"Č":{"x_min":72,"x_max":703,"ha":785,"o":"m 588 383 l 703 383 q 620 79 700 184 q 388 -25 540 -25 q 149 108 227 -25 q 72 519 72 241 q 148 939 72 809 q 397 1069 225 1069 q 618 986 540 1069 q 696 749 696 903 l 696 737 l 583 737 q 532 905 583 844 q 395 966 482 966 q 242 862 289 966 q 196 519 196 759 q 244 185 196 284 q 403 86 292 86 q 540 158 492 86 q 588 366 588 231 l 588 383 m 236 1327 l 302 1327 l 409 1214 l 516 1327 l 583 1327 l 466 1144 l 352 1144 l 236 1327 "},"x":{"x_min":-12,"x_max":571,"ha":559,"o":"m -12 0 l 209 404 l 3 781 l 127 781 l 278 500 l 430 781 l 553 781 l 344 412 l 571 0 l 443 0 l 275 316 l 111 0 l -12 0 "},"è":{"x_min":61,"x_max":550,"ha":611,"o":"m 174 475 l 439 475 l 439 496 q 407 658 439 603 q 312 713 375 713 q 208 654 242 713 q 174 475 174 595 m 440 264 l 547 264 q 483 52 545 125 q 307 -21 421 -21 q 121 77 181 -21 q 61 381 61 175 q 121 701 61 600 q 309 803 181 803 q 490 716 431 803 q 550 454 550 630 q 549 412 550 426 q 548 387 549 398 l 174 386 l 174 351 q 207 138 174 205 q 315 71 241 71 q 406 121 373 71 q 440 258 440 171 l 440 264 m 405 865 l 336 865 l 169 1048 l 289 1048 l 405 865 "},"Ø":{"x_min":52.953125,"x_max":756.5625,"ha":814,"o":"m 576 872 q 509 942 549 920 q 407 965 469 965 q 242 869 290 965 q 195 522 195 774 q 199 380 195 440 q 212 271 203 320 l 576 872 m 239 179 q 304 102 263 127 q 407 78 345 78 q 575 173 528 78 q 622 547 622 269 q 617 667 622 609 q 604 780 613 726 l 239 179 m 52 9 l 132 140 q 87 294 101 204 q 74 522 74 384 q 152 941 74 814 q 407 1069 230 1069 q 543 1046 485 1069 q 641 977 600 1024 l 695 1071 l 756 1033 l 684 909 q 728 750 714 844 q 743 522 743 655 q 664 101 743 227 q 407 -25 586 -25 q 273 0 330 -25 q 175 71 216 23 l 114 -30 l 52 9 "},"÷":{"x_min":172,"x_max":986,"ha":1157,"o":"m 579 249 q 638 223 613 249 q 664 164 664 198 q 639 103 664 128 q 579 79 614 79 q 518 103 542 79 q 494 164 494 127 q 519 223 494 198 q 579 249 544 249 m 986 461 l 986 367 l 172 367 l 172 461 l 986 461 m 579 749 q 638 723 613 749 q 664 663 664 698 q 639 603 664 628 q 579 579 614 579 q 518 603 543 579 q 494 663 494 628 q 519 723 494 698 q 579 749 544 749 "},"h":{"x_min":83,"x_max":572,"ha":653,"o":"m 83 0 l 83 1044 l 193 1044 l 193 695 q 269 772 223 747 q 381 798 316 798 q 521 751 471 798 q 572 620 572 704 l 572 0 l 462 0 l 462 568 q 435 668 462 637 q 352 700 409 700 q 236 653 279 700 q 193 529 193 607 l 193 0 l 83 0 "},".":{"x_min":111,"x_max":234,"ha":347,"o":"m 111 0 l 111 143 l 234 143 l 234 0 l 111 0 "},"f":{"x_min":2.71875,"x_max":344,"ha":361,"o":"m 113 0 l 113 692 l 2 692 l 2 781 l 113 781 l 113 886 q 157 1010 113 971 q 297 1050 202 1050 q 317 1048 307 1050 q 344 1044 327 1047 l 343 947 q 320 950 331 949 q 299 952 310 952 q 242 936 259 952 q 226 882 226 920 l 226 781 l 344 781 l 344 692 l 226 692 l 226 0 l 113 0 "},"“":{"x_min":109,"x_max":429,"ha":539,"o":"m 232 1068 l 232 1002 q 188 963 203 997 q 173 874 173 930 l 173 868 l 232 868 l 232 726 l 109 726 l 109 869 q 142 1000 109 948 q 232 1068 175 1053 m 429 1068 l 429 1002 q 385 963 400 997 q 370 874 370 930 l 370 868 l 429 868 l 429 726 l 306 726 l 306 869 q 338 1000 306 948 q 429 1068 371 1053 "},"A":{"x_min":21,"x_max":743,"ha":764,"o":"m 241 407 l 519 407 l 380 953 l 241 407 m 21 0 l 305 1044 l 454 1044 l 743 0 l 625 0 l 545 301 l 214 301 l 138 0 l 21 0 "},"O":{"x_min":72,"x_max":741,"ha":814,"o":"m 193 522 q 240 174 193 270 q 406 78 288 78 q 572 171 525 78 q 620 522 620 265 q 572 871 620 777 q 406 965 525 965 q 240 869 288 965 q 193 522 193 773 m 72 522 q 150 941 72 813 q 406 1069 229 1069 q 662 942 584 1069 q 741 522 741 816 q 663 101 741 227 q 406 -25 585 -25 q 151 103 230 -25 q 72 522 72 232 "},"π":{"x_min":-21,"x_max":810,"ha":818,"o":"m 786 619 l 662 619 l 591 288 q 576 207 581 238 q 571 161 571 176 q 586 105 571 122 q 640 89 602 89 q 667 90 651 89 q 708 95 683 92 l 687 0 q 648 -8 667 -5 q 612 -11 630 -11 q 491 23 532 -11 q 450 126 450 58 q 457 206 450 157 q 487 364 464 254 l 541 619 l 320 619 l 189 0 l 66 0 l 198 619 l 170 619 q 113 597 134 619 q 87 528 93 575 l -21 528 q 46 683 -2 641 q 206 726 94 726 l 810 726 l 786 619 "},"‘":{"x_min":109,"x_max":232,"ha":340,"o":"m 232 1069 l 232 1002 q 188 963 203 997 q 173 875 173 930 l 173 869 l 232 869 l 232 726 l 109 726 l 109 869 q 142 1001 109 947 q 232 1069 175 1054 "},"3":{"x_min":56,"x_max":624,"ha":692,"o":"m 56 311 l 171 311 l 171 294 q 210 133 171 186 q 330 81 249 81 q 460 134 416 81 q 504 293 504 188 q 453 447 504 397 q 297 497 403 497 q 275 496 282 497 q 261 496 267 496 l 261 591 l 285 591 q 429 635 384 591 q 475 776 475 679 q 435 904 475 858 q 325 950 396 950 q 220 901 255 950 q 185 757 185 853 l 185 741 l 74 741 l 74 755 q 141 971 74 893 q 327 1050 209 1050 q 519 979 448 1050 q 590 788 590 909 q 550 630 590 693 q 443 553 510 566 q 579 474 534 537 q 624 298 624 411 q 547 62 624 146 q 330 -21 470 -21 q 126 61 196 -21 q 56 300 56 143 l 56 311 "},"9":{"x_min":54,"x_max":626,"ha":692,"o":"m 502 691 q 457 882 502 815 q 331 950 413 950 q 214 883 255 950 q 173 694 173 817 q 215 519 173 578 q 339 460 257 460 q 462 515 423 460 q 502 691 502 571 m 516 489 q 440 391 491 425 q 320 358 390 358 q 124 446 195 358 q 54 690 54 534 q 129 954 54 857 q 331 1051 204 1051 q 555 932 485 1051 q 626 551 626 814 q 555 112 626 245 q 324 -21 484 -21 q 148 47 214 -21 q 82 229 82 115 l 199 229 l 199 222 q 233 118 199 156 q 328 81 268 81 q 462 164 421 81 q 516 489 503 248 "},"l":{"x_min":82,"x_max":191,"ha":272,"o":"m 82 0 l 82 1044 l 191 1044 l 191 0 l 82 0 "},"":{"x_min":1.359375,"x_max":548,"ha":625,"o":"m 113 0 l 113 691 l 1 691 l 1 781 l 113 781 l 113 886 q 157 1010 113 971 q 298 1050 202 1050 q 322 1048 311 1050 q 343 1044 333 1047 l 342 947 q 318 951 328 950 q 299 953 308 953 q 242 936 258 953 q 226 877 226 920 l 226 781 l 343 781 l 343 691 l 226 691 l 226 0 l 113 0 m 435 0 l 435 781 l 548 781 l 548 0 l 435 0 m 435 903 l 435 1044 l 548 1044 l 548 903 l 435 903 "},"4":{"x_min":43,"x_max":630,"ha":692,"o":"m 139 367 l 421 367 l 433 901 l 139 367 m 421 0 l 421 267 l 43 267 l 43 368 l 430 1050 l 532 1050 l 532 367 l 630 367 l 630 267 l 532 267 l 532 0 l 421 0 "},"Ü":{"x_min":94,"x_max":706,"ha":800,"o":"m 94 1044 l 211 1044 l 211 341 q 252 137 211 194 q 394 80 294 80 q 543 143 495 80 q 592 341 592 206 l 592 1044 l 706 1044 l 706 362 q 691 175 706 230 q 640 78 676 121 q 535 2 598 28 q 392 -24 472 -24 q 245 4 310 -24 q 142 84 180 32 q 105 174 116 119 q 94 362 94 230 l 94 1044 m 459 1168 l 459 1283 l 565 1283 l 565 1168 l 459 1168 m 236 1168 l 236 1283 l 342 1283 l 342 1168 l 236 1168 "},"à":{"x_min":61,"x_max":590,"ha":619,"o":"m 417 421 q 303 361 391 392 q 292 357 296 358 q 193 297 216 330 q 171 198 171 263 q 196 107 171 139 q 269 76 222 76 q 376 127 336 76 q 417 266 417 179 l 417 421 m 590 -1 q 554 -6 569 -4 q 525 -8 538 -8 q 453 21 479 -8 q 424 103 426 50 q 352 11 399 43 q 239 -20 304 -20 q 108 37 155 -20 q 61 197 61 94 q 104 351 61 298 q 293 453 148 404 l 295 453 q 414 547 414 493 l 414 619 q 386 689 414 667 q 299 711 359 711 q 212 680 240 711 q 184 587 184 650 l 184 574 l 82 574 q 138 748 84 693 q 312 803 193 803 q 474 752 423 803 q 526 592 526 702 l 526 136 q 536 92 526 105 q 572 79 547 79 q 587 81 577 79 q 590 81 588 81 l 590 -1 m 403 865 l 334 865 l 167 1048 l 287 1048 l 403 865 "},"ó":{"x_min":61,"x_max":610,"ha":671,"o":"m 61 389 q 128 701 61 600 q 335 803 196 803 q 543 702 476 803 q 610 389 610 602 q 543 78 610 177 q 335 -21 476 -21 q 126 77 192 -21 q 61 389 61 176 m 178 390 q 213 143 178 215 q 335 72 249 72 q 455 144 419 72 q 492 390 492 217 q 455 635 492 563 q 335 707 419 707 q 214 636 250 707 q 178 390 178 565 m 258 864 l 373 1048 l 494 1048 l 326 864 l 258 864 "}}}
